<svg width="30" height="30" viewBox="0 0 30 30" fill="none" xmlns="http://www.w3.org/2000/svg">
<path d="M7.5 7.5H17.5C18.4946 7.5 19.4484 7.89509 20.1517 8.59835C20.8549 9.30161 21.25 10.2554 21.25 11.25C21.25 12.2446 20.8549 13.1984 20.1517 13.9017C19.4484 14.6049 18.4946 15 17.5 15C18.4946 15 19.4484 15.3951 20.1517 16.0983C20.8549 16.8016 21.25 17.7554 21.25 18.75C21.25 19.7446 20.8549 20.6984 20.1517 21.4017C19.4484 22.1049 18.4946 22.5 17.5 22.5H7.5" stroke="#272978" stroke-width="2" stroke-linecap="round" stroke-linejoin="round"/>
<path d="M10 7.5V22.5" stroke="#272978" stroke-width="2" stroke-linecap="round" stroke-linejoin="round"/>
<path d="M10 15H17.5" stroke="#272978" stroke-width="2" stroke-linecap="round" stroke-linejoin="round"/>
<path d="M11.25 3.75V7.5" stroke="#272978" stroke-width="2" stroke-linecap="round" stroke-linejoin="round"/>
<path d="M16.25 3.75V7.5" stroke="#272978" stroke-width="2" stroke-linecap="round" stroke-linejoin="round"/>
<path d="M11.25 22.5V26.25" stroke="#272978" stroke-width="2" stroke-linecap="round" stroke-linejoin="round"/>
<path d="M16.25 22.5V26.25" stroke="#272978" stroke-width="2" stroke-linecap="round" stroke-linejoin="round"/>
</svg>
