<svg width="30" height="30" viewBox="0 0 30 30" fill="none" xmlns="http://www.w3.org/2000/svg">
<path d="M17.5 9.99994C18.8807 9.99994 20 8.88065 20 7.49994C20 6.11923 18.8807 4.99994 17.5 4.99994C16.1193 4.99994 15 6.11923 15 7.49994C15 8.88065 16.1193 9.99994 17.5 9.99994Z" stroke="#272978" stroke-width="2" stroke-linecap="round" stroke-linejoin="round"/>
<path d="M5 7.5H15" stroke="#272978" stroke-width="2" stroke-linecap="round" stroke-linejoin="round"/>
<path d="M20 7.5H25" stroke="#272978" stroke-width="2" stroke-linecap="round" stroke-linejoin="round"/>
<path d="M10 17.4999C11.3807 17.4999 12.5 16.3807 12.5 14.9999C12.5 13.6192 11.3807 12.4999 10 12.4999C8.61929 12.4999 7.5 13.6192 7.5 14.9999C7.5 16.3807 8.61929 17.4999 10 17.4999Z" stroke="#272978" stroke-width="2" stroke-linecap="round" stroke-linejoin="round"/>
<path d="M5 15H7.5" stroke="#272978" stroke-width="2" stroke-linecap="round" stroke-linejoin="round"/>
<path d="M12.5 15H25" stroke="#272978" stroke-width="2" stroke-linecap="round" stroke-linejoin="round"/>
<path d="M21.25 24.9999C22.6307 24.9999 23.75 23.8807 23.75 22.4999C23.75 21.1192 22.6307 19.9999 21.25 19.9999C19.8693 19.9999 18.75 21.1192 18.75 22.4999C18.75 23.8807 19.8693 24.9999 21.25 24.9999Z" stroke="#272978" stroke-width="2" stroke-linecap="round" stroke-linejoin="round"/>
<path d="M5 22.5H18.75" stroke="#272978" stroke-width="2" stroke-linecap="round" stroke-linejoin="round"/>
<path d="M23.75 22.5H25" stroke="#272978" stroke-width="2" stroke-linecap="round" stroke-linejoin="round"/>
</svg>
