<svg width="30" height="30" viewBox="0 0 30 30" fill="none" xmlns="http://www.w3.org/2000/svg">
<path d="M25.1038 19L26.6063 19.9013C26.699 19.9567 26.7757 20.0353 26.829 20.1293C26.8823 20.2233 26.9103 20.3295 26.9103 20.4375C26.9103 20.5455 26.8823 20.6517 26.829 20.7457C26.7757 20.8397 26.699 20.9183 26.6063 20.9738L15.6438 27.5513C15.4494 27.6681 15.2269 27.7298 15.0001 27.7298C14.7733 27.7298 14.5507 27.6681 14.3563 27.5513L3.39381 20.9738C3.30112 20.9183 3.22439 20.8397 3.17112 20.7457C3.11785 20.6517 3.08984 20.5455 3.08984 20.4375C3.08984 20.3295 3.11785 20.2233 3.17112 20.1293C3.22439 20.0353 3.30112 19.9567 3.39381 19.9013L4.89631 19L15.0001 25.0625L25.1038 19ZM25.1038 13.125L26.6063 14.0263C26.699 14.0817 26.7757 14.1603 26.829 14.2543C26.8823 14.3483 26.9103 14.4545 26.9103 14.5625C26.9103 14.6705 26.8823 14.7767 26.829 14.8707C26.7757 14.9647 26.699 15.0433 26.6063 15.0988L15.0001 22.0625L3.39381 15.0988C3.30112 15.0433 3.22439 14.9647 3.17112 14.8707C3.11785 14.7767 3.08984 14.6705 3.08984 14.5625C3.08984 14.4545 3.11785 14.3483 3.17112 14.2543C3.22439 14.1603 3.30112 14.0817 3.39381 14.0263L4.89631 13.125L15.0001 19.1875L25.1038 13.125ZM15.6426 1.63625L26.6063 8.21375C26.699 8.26924 26.7757 8.34781 26.829 8.4418C26.8823 8.53578 26.9103 8.64197 26.9103 8.75C26.9103 8.85804 26.8823 8.96422 26.829 9.05821C26.7757 9.15219 26.699 9.23076 26.6063 9.28625L15.0001 16.25L3.39381 9.28625C3.30112 9.23076 3.22439 9.15219 3.17112 9.05821C3.11785 8.96422 3.08984 8.85804 3.08984 8.75C3.08984 8.64197 3.11785 8.53578 3.17112 8.4418C3.22439 8.34781 3.30112 8.26924 3.39381 8.21375L14.3563 1.63625C14.5507 1.51945 14.7733 1.45774 15.0001 1.45774C15.2269 1.45774 15.4494 1.51945 15.6438 1.63625H15.6426ZM15.0001 4.165L7.35881 8.75L15.0001 13.335L22.6413 8.75L15.0001 4.165Z" fill="white"/>
</svg>
