<svg width="35" height="35" viewBox="0 0 35 35" fill="none" xmlns="http://www.w3.org/2000/svg">
<path d="M19.7641 17.2976C19.6937 17.3251 19.6183 17.3377 19.5428 17.3346C19.4672 17.3315 19.3931 17.3128 19.3252 17.2796C19.2573 17.2465 19.1969 17.1996 19.1481 17.1419C19.0992 17.0842 19.0627 17.017 19.0411 16.9446C19.0195 16.8722 19.0131 16.796 19.0224 16.721C19.0317 16.646 19.0565 16.5737 19.0951 16.5087C19.1338 16.4437 19.1855 16.3874 19.247 16.3435C19.3084 16.2995 19.3784 16.2687 19.4524 16.2531C19.3253 16.0456 19.1645 15.8608 18.9766 15.7062C18.9466 15.7729 18.9036 15.8329 18.85 15.8826C18.7965 15.9324 18.7335 15.9709 18.6648 15.9959C18.5961 16.0209 18.5231 16.0319 18.4501 16.0282C18.3771 16.0245 18.3056 16.0062 18.2398 15.9744C18.174 15.9426 18.1152 15.8979 18.067 15.843C18.0187 15.7881 17.9819 15.7241 17.9589 15.6547C17.9358 15.5854 17.9268 15.5121 17.9326 15.4392C17.9383 15.3663 17.9586 15.2953 17.9922 15.2304C17.76 15.172 17.5189 15.1572 17.2813 15.1867C17.3077 15.2553 17.3201 15.3285 17.3176 15.402C17.3151 15.4754 17.2978 15.5476 17.2668 15.6143C17.2357 15.6809 17.1916 15.7406 17.137 15.7898C17.0824 15.839 17.0184 15.8767 16.9489 15.9006C16.8793 15.9245 16.8057 15.9341 16.7324 15.9289C16.6591 15.9238 16.5876 15.9038 16.5221 15.8704C16.4566 15.8369 16.3986 15.7906 16.3515 15.7342C16.3043 15.6778 16.269 15.6125 16.2477 15.5422C16.0406 15.6676 15.8558 15.8265 15.7008 16.0125C15.7705 16.0406 15.8337 16.0828 15.8864 16.1365C15.9391 16.1901 15.9801 16.2541 16.007 16.3243C16.0338 16.3946 16.0459 16.4696 16.0425 16.5447C16.039 16.6198 16.0201 16.6934 15.9869 16.7609C15.9538 16.8284 15.907 16.8883 15.8496 16.9369C15.7923 16.9855 15.7255 17.0217 15.6535 17.0434C15.5815 17.065 15.5057 17.0716 15.4311 17.0626C15.3564 17.0537 15.2844 17.0294 15.2195 16.9914C15.1668 17.2226 15.152 17.4609 15.1758 17.6968C15.2444 17.6704 15.3176 17.6581 15.3911 17.6606C15.4645 17.663 15.5367 17.6803 15.6034 17.7113C15.67 17.7424 15.7297 17.7865 15.7789 17.8411C15.8281 17.8958 15.8658 17.9597 15.8897 18.0293C15.9136 18.0988 15.9232 18.1724 15.918 18.2457C15.9129 18.319 15.8929 18.3906 15.8595 18.456C15.826 18.5215 15.7797 18.5795 15.7233 18.6267C15.6669 18.6738 15.6016 18.7091 15.5313 18.7304C15.6619 18.9353 15.8222 19.1196 16.007 19.2773C16.037 19.2106 16.08 19.1507 16.1336 19.1009C16.1871 19.0511 16.2501 19.0126 16.3188 18.9876C16.3875 18.9626 16.4605 18.9516 16.5335 18.9553C16.6065 18.959 16.678 18.9773 16.7438 19.0091C16.8097 19.0409 16.8684 19.0856 16.9167 19.1405C16.9649 19.1954 17.0017 19.2595 17.0248 19.3288C17.0478 19.3982 17.0568 19.4715 17.0511 19.5443C17.0453 19.6172 17.0251 19.6882 16.9914 19.7531C17.2248 19.8035 17.4645 19.8183 17.7024 19.7968C17.6759 19.7283 17.6636 19.655 17.6661 19.5816C17.6686 19.5081 17.6858 19.4359 17.7169 19.3693C17.7479 19.3026 17.792 19.2429 17.8467 19.1937C17.9013 19.1445 17.9653 19.1069 18.0348 19.083C18.1043 19.0591 18.1779 19.0494 18.2512 19.0546C18.3245 19.0598 18.3961 19.0797 18.4615 19.1132C18.527 19.1466 18.585 19.1929 18.6322 19.2493C18.6793 19.3057 18.7146 19.371 18.736 19.4414C18.943 19.3159 19.1278 19.157 19.2828 18.9711C19.2131 18.9429 19.1499 18.9007 19.0972 18.8471C19.0446 18.7934 19.0035 18.7295 18.9767 18.6592C18.9498 18.589 18.9377 18.514 18.9412 18.4388C18.9446 18.3637 18.9635 18.2901 18.9967 18.2227C19.0299 18.1552 19.0766 18.0953 19.134 18.0467C19.1914 17.998 19.2581 17.9618 19.3302 17.9402C19.4022 17.9185 19.4779 17.912 19.5525 17.9209C19.6272 17.9299 19.6992 17.9541 19.7641 17.9922C19.8168 17.7609 19.8316 17.5227 19.8078 17.2867L19.7641 17.2976ZM17.3195 16.9531C17.2454 16.9732 17.1763 17.0086 17.1167 17.0572C17.0572 17.1058 17.0085 17.1663 16.9739 17.235C16.9394 17.3036 16.9197 17.3787 16.9161 17.4555C16.9125 17.5322 16.9251 17.6089 16.9531 17.6804C16.9821 17.7631 16.9907 17.8516 16.9783 17.9383C16.9659 18.025 16.9328 18.1075 16.8819 18.1788C16.831 18.2501 16.7637 18.3081 16.6857 18.3479C16.6077 18.3878 16.5212 18.4083 16.4336 18.4078C15.225 18.1125 15.9633 16.1437 16.9422 15.9414C17.0696 15.9159 17.202 15.9367 17.3155 15.9999C17.429 16.0632 17.5163 16.1648 17.5617 16.2866C17.6071 16.4083 17.6077 16.5423 17.5633 16.6644C17.5189 16.7865 17.4325 16.8889 17.3195 16.9531Z" fill="#ECECEC"/>
<path d="M17.4999 10.5657C8.20307 10.8118 8.42729 24.418 17.7023 24.429C26.7531 23.9915 26.5343 10.779 17.4999 10.5657ZM22.0828 17.2047C21.8779 17.2759 21.6574 17.2896 21.4453 17.2443C21.2332 17.199 21.0375 17.0964 20.8796 16.9477C20.9619 17.4481 20.9282 17.9608 20.7812 18.4461C21.2734 18.0196 22.5859 18.2165 22.2523 19.0751C22.1887 19.2044 22.0766 19.3033 21.9404 19.3504C21.8042 19.3975 21.6549 19.389 21.5249 19.3266C21.4966 19.3133 21.4642 19.3115 21.4345 19.3218C21.4049 19.332 21.3805 19.3533 21.3663 19.3813C21.36 19.3945 21.3563 19.4089 21.3556 19.4236C21.3549 19.4383 21.3572 19.453 21.3623 19.4667C21.3674 19.4805 21.3753 19.4931 21.3853 19.5038C21.3954 19.5145 21.4076 19.5231 21.421 19.529C21.5326 19.583 21.6225 19.6733 21.676 19.7852C21.7295 19.897 21.7434 20.0237 21.7154 20.1445C21.6875 20.2653 21.6193 20.373 21.5221 20.45C21.4249 20.5269 21.3044 20.5685 21.1804 20.568C20.9226 20.5249 20.6888 20.3909 20.5212 20.1903C20.3537 19.9896 20.2636 19.7356 20.2671 19.4743C19.9752 19.8916 19.5893 20.2344 19.1406 20.475C19.7913 20.5188 20.5788 21.5688 19.7421 21.9626C19.6739 21.9867 19.6016 21.997 19.5294 21.993C19.4572 21.989 19.3864 21.9707 19.3213 21.9392C19.2562 21.9076 19.198 21.8635 19.1501 21.8093C19.1022 21.7551 19.0655 21.692 19.0421 21.6235C19.0372 21.609 19.0295 21.5957 19.0194 21.5843C19.0093 21.5729 18.997 21.5636 18.9832 21.557C18.9695 21.5503 18.9545 21.5465 18.9393 21.5457C18.9241 21.545 18.9088 21.5472 18.8945 21.5524C18.8802 21.5567 18.867 21.5639 18.8556 21.5735C18.8443 21.5831 18.835 21.5949 18.8283 21.6082C18.8216 21.6215 18.8178 21.636 18.8169 21.6509C18.8161 21.6657 18.8183 21.6806 18.8234 21.6946C18.852 21.7764 18.8607 21.8639 18.8489 21.9497C18.8371 22.0356 18.805 22.1174 18.7553 22.1885C18.7057 22.2595 18.6398 22.3177 18.5632 22.3583C18.4866 22.3989 18.4015 22.4207 18.3148 22.4219C17.5601 22.3782 17.6093 21.2735 18.0359 20.8633C17.5402 20.9483 17.0317 20.9202 16.5484 20.7813C16.9093 21.2297 16.871 22.2688 16.1601 22.3071C16.0672 22.3073 15.9757 22.2838 15.8944 22.2388C15.813 22.1938 15.7445 22.1289 15.6953 22.05C15.646 21.9712 15.6176 21.8812 15.6129 21.7884C15.6081 21.6955 15.627 21.603 15.6679 21.5196C15.6751 21.5065 15.6795 21.492 15.6806 21.4771C15.6817 21.4622 15.6796 21.4472 15.6744 21.4332C15.6692 21.4192 15.6611 21.4065 15.6505 21.3959C15.6399 21.3853 15.6272 21.3771 15.6132 21.3719C15.5863 21.3584 15.5552 21.356 15.5266 21.3653C15.498 21.3745 15.4741 21.3945 15.4601 21.4211C15.4286 21.4859 15.3846 21.5437 15.3307 21.5914C15.2768 21.6391 15.214 21.6757 15.1459 21.6991C15.0778 21.7225 15.0058 21.7322 14.934 21.7276C14.8621 21.7231 14.7919 21.7044 14.7273 21.6727C13.9398 21.2024 14.8531 20.2399 15.4984 20.2727C15.0923 19.9851 14.7544 19.6117 14.5085 19.179C14.4711 19.4212 14.3568 19.645 14.1826 19.8173C14.0083 19.9896 13.7832 20.1013 13.5406 20.136C13.4125 20.1346 13.2889 20.0882 13.1915 20.0051C13.0941 19.9219 13.0289 19.8071 13.0075 19.6809C12.986 19.5546 13.0095 19.4247 13.074 19.314C13.1384 19.2033 13.2397 19.1187 13.3601 19.0751C13.3743 19.0707 13.3876 19.0636 13.3989 19.054C13.4103 19.0444 13.4196 19.0326 13.4263 19.0193C13.4329 19.006 13.4368 18.9914 13.4376 18.9766C13.4385 18.9617 13.4363 18.9468 13.4312 18.9329C13.4263 18.9184 13.4185 18.9051 13.4084 18.8937C13.3983 18.8823 13.386 18.873 13.3723 18.8663C13.3585 18.8597 13.3436 18.8559 13.3284 18.8551C13.3131 18.8543 13.2979 18.8566 13.2835 18.8618C13.2129 18.8861 13.138 18.8957 13.0635 18.89C12.989 18.8843 12.9164 18.8634 12.8503 18.8285C12.7842 18.7937 12.7259 18.7456 12.6791 18.6874C12.6323 18.6292 12.5979 18.5619 12.5781 18.4899C12.3538 17.5985 13.6718 17.5602 14.1148 18.0415C14.0367 17.5441 14.0723 17.0356 14.2187 16.554C13.7156 16.9915 12.4195 16.7782 12.7476 15.9251C12.8112 15.7957 12.9233 15.6968 13.0595 15.6497C13.1957 15.6026 13.345 15.6111 13.4749 15.6735C13.5033 15.6868 13.5357 15.6886 13.5653 15.6783C13.595 15.6681 13.6194 15.6468 13.6335 15.6188C13.6399 15.6056 13.6436 15.5912 13.6442 15.5765C13.6449 15.5618 13.6427 15.5471 13.6376 15.5334C13.6325 15.5196 13.6246 15.507 13.6145 15.4963C13.6045 15.4856 13.5923 15.477 13.5788 15.4711C13.455 15.4076 13.3601 15.2993 13.3133 15.1682C13.2666 15.0372 13.2716 14.8932 13.3273 14.7657C13.7921 13.9836 14.771 14.875 14.7328 15.5422C15.0249 15.118 15.4102 14.7663 15.8593 14.5141C15.2031 14.4868 14.4046 13.4204 15.2468 13.0375C15.315 13.0134 15.3873 13.0031 15.4596 13.0071C15.5318 13.0111 15.6025 13.0294 15.6676 13.0609C15.7327 13.0925 15.7909 13.1366 15.8388 13.1908C15.8868 13.245 15.9235 13.3081 15.9468 13.3766C15.9517 13.3911 15.9595 13.4044 15.9696 13.4158C15.9797 13.4272 15.992 13.4365 16.0057 13.4431C16.0195 13.4498 16.0344 13.4536 16.0496 13.4543C16.0649 13.4551 16.0801 13.4529 16.0945 13.4477C16.1087 13.4434 16.1219 13.4362 16.1333 13.4266C16.1447 13.417 16.154 13.4052 16.1606 13.3919C16.1673 13.3786 16.1712 13.3641 16.172 13.3492C16.1729 13.3344 16.1707 13.3195 16.1656 13.3055C16.1185 13.1685 16.1278 13.0183 16.1914 12.8881C16.255 12.7579 16.3676 12.6582 16.5046 12.611C17.3796 12.3813 17.4507 13.7047 16.9531 14.1422C17.4493 14.0611 17.9573 14.091 18.4406 14.2297C18.0031 13.7321 18.2328 12.436 19.0749 12.7641C19.1397 12.7956 19.1975 12.8396 19.2452 12.8935C19.2929 12.9474 19.3295 13.0102 19.3529 13.0783C19.3763 13.1464 19.386 13.2184 19.3814 13.2902C19.3769 13.3621 19.3582 13.4323 19.3265 13.4969C19.3193 13.51 19.3149 13.5245 19.3138 13.5394C19.3127 13.5543 19.3148 13.5693 19.32 13.5833C19.3252 13.5973 19.3333 13.61 19.3439 13.6206C19.3545 13.6312 19.3672 13.6394 19.3812 13.6446C19.4081 13.6581 19.4392 13.6605 19.4678 13.6513C19.4964 13.642 19.5203 13.622 19.5343 13.5954C19.5658 13.5306 19.6098 13.4728 19.6637 13.4251C19.7176 13.3774 19.7804 13.3408 19.8485 13.3174C19.9166 13.2941 19.9886 13.2844 20.0604 13.2889C20.1323 13.2934 20.2025 13.3121 20.2671 13.3438C21.0546 13.8141 20.1413 14.7766 19.496 14.7438C19.9047 15.0285 20.2432 15.4026 20.4859 15.8375C20.5296 15.1704 21.6124 14.4102 21.9734 15.2415C22.0204 15.3785 22.0111 15.5287 21.9476 15.6589C21.884 15.7891 21.7713 15.8888 21.6343 15.936C21.6196 15.9395 21.6058 15.9462 21.594 15.9557C21.5821 15.9651 21.5725 15.977 21.5657 15.9905C21.5589 16.0041 21.5552 16.0189 21.5548 16.0341C21.5543 16.0492 21.5572 16.0643 21.5632 16.0782C21.5681 16.0926 21.5759 16.1059 21.586 16.1174C21.5961 16.1288 21.6084 16.1381 21.6221 16.1447C21.6359 16.1513 21.6508 16.1551 21.666 16.1559C21.6813 16.1567 21.6965 16.1544 21.7109 16.1493C21.8508 16.1014 22.0041 16.1111 22.1369 16.1762C22.2697 16.2414 22.3712 16.3566 22.4191 16.4965C22.4669 16.6365 22.4572 16.7897 22.3921 16.9226C22.327 17.0554 22.2118 17.1569 22.0718 17.2047H22.0828Z" fill="#901AD8"/>
<path d="M16.9531 7.05469V8.75H16.4062C16.2612 8.75 16.1221 8.80762 16.0195 8.91018C15.9169 9.01273 15.8593 9.15183 15.8593 9.29688C15.8593 9.44192 15.9169 9.58102 16.0195 9.68357C16.1221 9.78613 16.2612 9.84375 16.4062 9.84375H18.5937C18.7387 9.84375 18.8778 9.78613 18.9804 9.68357C19.0829 9.58102 19.1406 9.44192 19.1406 9.29688C19.1406 9.15183 19.0829 9.01273 18.9804 8.91018C18.8778 8.80762 18.7387 8.75 18.5937 8.75H18.0468V7.05469C21.2023 6.43672 20.7484 1.64062 17.4999 1.64062C14.2515 1.64062 13.7976 6.44219 16.9531 7.05469Z" fill="#ECECEC"/>
<path d="M22.914 12.0859C23.1546 12.2664 23.7234 13.0703 24.0734 13.0211C24.182 13.0217 24.2884 12.99 24.3789 12.93C24.4694 12.8699 24.54 12.7843 24.5816 12.6839C24.6233 12.5836 24.6341 12.4732 24.6128 12.3667C24.5914 12.2602 24.5388 12.1624 24.4617 12.0859L24.0624 11.6977L25.2601 10.5C27.9453 12.3047 31.0132 8.5586 28.7054 6.2836C26.3976 4.0086 22.6898 7.04376 24.489 9.72892L23.3023 10.9375L22.914 10.5492C22.4218 10.0406 21.6289 10.8281 22.1429 11.3258L22.914 12.0859Z" fill="#ECECEC"/>
<path d="M30.625 14.7656C29.9946 14.7655 29.3836 14.9832 28.8953 15.3818C28.407 15.7804 28.0714 16.3355 27.9453 16.9531H26.25V16.4063C26.25 16.2612 26.1924 16.1221 26.0898 16.0196C25.9873 15.917 25.8482 15.8594 25.7031 15.8594C25.5581 15.8594 25.419 15.917 25.3164 16.0196C25.2139 16.1221 25.1562 16.2612 25.1562 16.4063V18.5938C25.1562 18.7388 25.2139 18.8779 25.3164 18.9805C25.419 19.083 25.5581 19.1406 25.7031 19.1406C25.8482 19.1406 25.9873 19.083 26.0898 18.9805C26.1924 18.8779 26.25 18.7388 26.25 18.5938V18.0469H27.9453C28.5633 21.2023 33.3758 20.7484 33.3594 17.5C33.3594 16.7748 33.0713 16.0793 32.5585 15.5665C32.0457 15.0537 31.3502 14.7656 30.625 14.7656Z" fill="#ECECEC"/>
<path d="M26.7968 24.0625C26.26 24.0624 25.7351 24.2202 25.2874 24.5164L24.0624 23.3024L24.4507 22.9141C24.9593 22.4219 24.1718 21.6289 23.6742 22.143L22.914 22.9141L22.1429 23.6852C21.6289 24.1828 22.4218 24.9703 22.914 24.4617L23.3023 24.0734L24.4999 25.2711C22.6953 27.9563 26.4414 31.0242 28.7164 28.7164C30.4445 27.1031 29.1429 23.9641 26.7968 24.0625Z" fill="#ECECEC"/>
<path d="M18.0468 27.9453V26.25H18.5937C18.7387 26.25 18.8778 26.1924 18.9804 26.0898C19.0829 25.9873 19.1406 25.8482 19.1406 25.7031C19.1406 25.5581 19.0829 25.419 18.9804 25.3164C18.8778 25.2139 18.7387 25.1562 18.5937 25.1562H16.4062C16.2612 25.1562 16.1221 25.2139 16.0195 25.3164C15.9169 25.419 15.8593 25.5581 15.8593 25.7031C15.8593 25.8482 15.9169 25.9873 16.0195 26.0898C16.1221 26.1924 16.2612 26.25 16.4062 26.25H16.9531V27.9453C13.7976 28.5633 14.2515 33.3594 17.4999 33.3594C20.7484 33.3594 21.2023 28.5578 18.0468 27.9453Z" fill="#ECECEC"/>
<path d="M12.0859 22.9141L11.3148 22.143C10.8172 21.6289 10.0297 22.4219 10.5383 22.9141L10.9265 23.3024L9.72888 24.5C7.06013 22.7008 3.97029 26.4359 6.28357 28.7164C8.59685 30.9969 12.2992 27.9399 10.5 25.2711L11.6976 24.0625C11.8945 24.232 12.1789 24.6422 12.4742 24.6094C12.5824 24.6089 12.6879 24.5764 12.7776 24.516C12.8673 24.4555 12.937 24.3698 12.978 24.2697C13.019 24.1696 13.0294 24.0596 13.0078 23.9536C12.9863 23.8476 12.9338 23.7504 12.857 23.6742L12.0859 22.9141Z" fill="#ECECEC"/>
<path d="M7.05469 18.0469H8.75V18.5938C8.75 18.7388 8.80762 18.8779 8.91018 18.9805C9.01273 19.083 9.15183 19.1406 9.29688 19.1406C9.44192 19.1406 9.58102 19.083 9.68357 18.9805C9.78613 18.8779 9.84375 18.7388 9.84375 18.5938V16.4063C9.84375 16.2612 9.78613 16.1221 9.68357 16.0196C9.58102 15.917 9.44192 15.8594 9.29688 15.8594C9.15183 15.8594 9.01273 15.917 8.91018 16.0196C8.80762 16.1221 8.75 16.2612 8.75 16.4063V16.9531H7.05469C6.43672 13.7977 1.64062 14.2516 1.64062 17.5C1.64062 20.7484 6.44219 21.2023 7.05469 18.0469Z" fill="#ECECEC"/>
<path d="M8.20318 10.9375C8.73995 10.9376 9.26488 10.7797 9.71255 10.4836L10.9376 11.6976L10.5493 12.0859C10.0407 12.5781 10.8282 13.3711 11.3258 12.857L12.868 11.3148C13.3766 10.8172 12.5891 10.0297 12.0969 10.5383L11.7086 10.9265L10.5001 9.72888C12.2993 7.06013 8.56411 3.97029 6.28365 6.28357C4.54458 7.89138 5.88443 11.0523 8.20318 10.9375Z" fill="#ECECEC"/>
</svg>
