<svg width="30" height="30" viewBox="0 0 30 30" fill="none" xmlns="http://www.w3.org/2000/svg">
<path d="M15 10C18.31 10 21.285 11.0325 23.3437 12.675C24.048 12.4281 24.8174 12.4414 25.5127 12.7126C26.208 12.9837 26.7834 13.4947 27.1347 14.1532C27.4859 14.8116 27.59 15.5741 27.4279 16.3026C27.2659 17.0311 26.8485 17.6775 26.2512 18.125C26.2512 22.6125 21.2137 26.25 15.0012 26.25C8.90749 26.25 3.94499 22.75 3.75124 18.3825L2.50124 18.125C1.90398 17.6775 1.48658 17.0311 1.32454 16.3026C1.16251 15.5741 1.26654 14.8116 1.61782 14.1532C1.9691 13.4947 2.54443 12.9837 3.23975 12.7126C3.93507 12.4414 4.70445 12.4281 5.40874 12.675C7.46624 11.0338 10.4412 10 13.7512 10H15Z" stroke="white" stroke-width="1.25" stroke-linecap="round" stroke-linejoin="round"/>
<path d="M15 10L16.25 3.75L23.75 5" stroke="white" stroke-width="1.25" stroke-linecap="round" stroke-linejoin="round"/>
<path d="M23.75 6.25C24.4404 6.25 25 5.69036 25 5C25 4.30964 24.4404 3.75 23.75 3.75C23.0596 3.75 22.5 4.30964 22.5 5C22.5 5.69036 23.0596 6.25 23.75 6.25Z" stroke="white" stroke-width="1.25" stroke-linecap="round" stroke-linejoin="round"/>
<path d="M11.25 16.875C11.5952 16.875 11.875 16.5952 11.875 16.25C11.875 15.9048 11.5952 15.625 11.25 15.625C10.9048 15.625 10.625 15.9048 10.625 16.25C10.625 16.5952 10.9048 16.875 11.25 16.875Z" fill="white" stroke="white" stroke-width="1.25" stroke-linecap="round" stroke-linejoin="round"/>
<path d="M18.75 16.875C19.0952 16.875 19.375 16.5952 19.375 16.25C19.375 15.9048 19.0952 15.625 18.75 15.625C18.4048 15.625 18.125 15.9048 18.125 16.25C18.125 16.5952 18.4048 16.875 18.75 16.875Z" fill="white" stroke="white" stroke-width="1.25" stroke-linecap="round" stroke-linejoin="round"/>
<path d="M12.5 21.25C13.3337 21.6663 14.1662 21.875 15 21.875C15.8337 21.875 16.6662 21.6663 17.5 21.25" stroke="white" stroke-width="1.25" stroke-linecap="round" stroke-linejoin="round"/>
</svg>
