<svg width="30" height="30" viewBox="0 0 30 30" fill="none" xmlns="http://www.w3.org/2000/svg">
<path d="M15 26.25C21.2132 26.25 26.25 21.2132 26.25 15C26.25 8.7868 21.2132 3.75 15 3.75C8.7868 3.75 3.75 8.7868 3.75 15C3.75 21.2132 8.7868 26.25 15 26.25Z" stroke="#272978" stroke-width="2" stroke-linecap="round" stroke-linejoin="round"/>
<path d="M18.5 11.25C18.2736 10.8572 17.9446 10.5334 17.5482 10.3132C17.1519 10.093 16.7031 9.98476 16.25 10H13.75C13.087 10 12.4511 10.2634 11.9822 10.7322C11.5134 11.2011 11.25 11.837 11.25 12.5C11.25 13.1631 11.5134 13.7989 11.9822 14.2678C12.4511 14.7366 13.087 15 13.75 15H16.25C16.913 15 17.5489 15.2634 18.0178 15.7322C18.4866 16.2011 18.75 16.837 18.75 17.5C18.75 18.1631 18.4866 18.7989 18.0178 19.2678C17.5489 19.7366 16.913 20 16.25 20H13.75C13.2969 20.0153 12.8481 19.907 12.4518 19.6868C12.0554 19.4666 11.7264 19.1428 11.5 18.75" stroke="#272978" stroke-width="2" stroke-linecap="round" stroke-linejoin="round"/>
<path d="M15 20V22.5M15 7.5V10V7.5Z" stroke="#272978" stroke-width="2" stroke-linecap="round" stroke-linejoin="round"/>
</svg>
