<svg width="30" height="30" viewBox="0 0 30 30" fill="none" xmlns="http://www.w3.org/2000/svg">
<path d="M15 17.4999C16.3807 17.4999 17.5 16.3807 17.5 14.9999C17.5 13.6192 16.3807 12.4999 15 12.4999C13.6193 12.4999 12.5 13.6192 12.5 14.9999C12.5 16.3807 13.6193 17.4999 15 17.4999Z" stroke="white" stroke-width="2" stroke-linecap="round" stroke-linejoin="round"/>
<path d="M15 23.7501C10 23.7501 5.83375 20.8338 2.5 15.0001C5.83375 9.16631 10 6.25006 15 6.25006C20 6.25006 24.1662 9.16631 27.5 15.0001C26.975 15.9201 26.4275 16.7676 25.8612 17.5413" stroke="white" stroke-width="2" stroke-linecap="round" stroke-linejoin="round"/>
<path d="M18.75 23.7501L21.25 26.2501L26.25 21.2501" stroke="white" stroke-width="2" stroke-linecap="round" stroke-linejoin="round"/>
</svg>
