<svg width="30" height="30" viewBox="0 0 30 30" fill="none" xmlns="http://www.w3.org/2000/svg">
<path d="M23.75 19.9999V23.7499C23.75 24.0815 23.6183 24.3994 23.3839 24.6338C23.1495 24.8682 22.8315 24.9999 22.5 24.9999H7.5C6.83696 24.9999 6.20107 24.7365 5.73223 24.2677C5.26339 23.7989 5 23.163 5 22.4999V7.49994M21.25 9.99994V6.24994C21.25 5.91842 21.1183 5.60048 20.8839 5.36606C20.6495 5.13164 20.3315 4.99994 20 4.99994H7.5C6.83696 4.99994 6.20107 5.26333 5.73223 5.73217C5.26339 6.20101 5 6.8369 5 7.49994C5 8.16298 5.26339 8.79886 5.73223 9.26771C6.20107 9.73655 6.83696 9.99994 7.5 9.99994H22.5C22.8315 9.99994 23.1495 10.1316 23.3839 10.3661C23.6183 10.6005 23.75 10.9184 23.75 11.2499V14.9999L21.25 9.99994Z" stroke="#272978" stroke-width="2" stroke-linecap="round" stroke-linejoin="round"/>
<path d="M25 15V20H20C19.337 20 18.7011 19.7366 18.2322 19.2678C17.7634 18.7989 17.5 18.163 17.5 17.5C17.5 16.837 17.7634 16.2011 18.2322 15.7322C18.7011 15.2634 19.337 15 20 15H25Z" stroke="#272978" stroke-width="2" stroke-linecap="round" stroke-linejoin="round"/>
</svg>
