<svg width="30" height="30" viewBox="0 0 30 30" fill="none" xmlns="http://www.w3.org/2000/svg">
<path d="M9.49207 20.4798L9.61109 19.9005H0.387573L0.506619 20.4798C0.624872 21.046 0.933912 21.5546 1.38208 21.9203C1.83025 22.2861 2.39039 22.487 2.96887 22.4893H7.03035C7.60875 22.4869 8.16879 22.286 8.61686 21.9202C9.06493 21.5544 9.37388 21.046 9.49207 20.4798Z" fill="#272978"/>
<path d="M20.3889 19.9005L20.508 20.4798C20.6262 21.046 20.9353 21.5546 21.3834 21.9203C21.8316 22.2861 22.3917 22.487 22.9702 22.4893H27.0317C27.6101 22.4869 28.1701 22.286 28.6182 21.9202C29.0663 21.5544 29.3752 21.046 29.4934 20.4798L29.6124 19.9005H20.3889Z" fill="#272978"/>
<path d="M9.13424 18.4163C9.01413 18.1755 8.12539 16.3942 7.24361 14.6345C6.68933 13.5284 6.24629 12.647 5.92652 12.0151C5.73648 11.6389 5.58825 11.3479 5.48639 11.1497C5.43178 11.0437 5.38833 10.9603 5.35805 10.9036C5.33601 10.8254 5.28905 10.7566 5.22432 10.7076C5.15959 10.6586 5.08063 10.6321 4.99944 10.6321C4.91825 10.6321 4.83927 10.6586 4.77452 10.7076C4.70977 10.7565 4.66279 10.8253 4.64072 10.9035C4.61044 10.9603 4.56699 11.0437 4.51238 11.1499C4.41052 11.3479 4.26242 11.6389 4.07226 12.0148C3.75248 12.647 3.30944 13.5284 2.75516 14.6344C1.87402 16.393 0.985781 18.1732 0.86479 18.4158L0.850854 18.4437C0.809311 18.527 0.802564 18.6234 0.832095 18.7117C0.861627 18.8 0.925019 18.873 1.00834 18.9146H1.00846C1.04971 18.9352 1.09461 18.9474 1.1406 18.9506C1.18659 18.9539 1.23276 18.948 1.27648 18.9334C1.3202 18.9187 1.36061 18.8957 1.3954 18.8654C1.43019 18.8352 1.45868 18.7984 1.47925 18.7571C2.74845 16.2124 4.35085 13.0121 4.99939 11.7394C5.64754 13.0115 7.25007 16.2119 8.51965 18.757C8.54017 18.7983 8.56864 18.8352 8.60343 18.8656C8.63822 18.8959 8.67865 18.9191 8.72241 18.9338C8.76617 18.9484 8.8124 18.9544 8.85844 18.9512C8.90449 18.948 8.94945 18.9357 8.99076 18.9151C9.03207 18.8945 9.0689 18.866 9.09917 18.8311C9.12943 18.7963 9.15252 18.7558 9.16712 18.712C9.18171 18.6682 9.18753 18.622 9.18424 18.5759C9.18094 18.5299 9.1686 18.4849 9.14792 18.4437L9.13424 18.4163Z" fill="#272978"/>
<path d="M29.1491 18.4437L29.1354 18.4163C29.0153 18.1755 28.1265 16.3942 27.2448 14.6345C26.6905 13.5284 26.2474 12.647 25.9277 12.0151C25.7376 11.6389 25.5895 11.3478 25.4875 11.1497C25.4329 11.0437 25.3895 10.9605 25.3591 10.9032C25.337 10.8251 25.29 10.7564 25.2252 10.7075C25.1605 10.6585 25.0815 10.6321 25.0004 10.6321C24.9192 10.6321 24.8403 10.6586 24.7756 10.7076C24.7109 10.7566 24.6639 10.8254 24.6419 10.9035C24.6116 10.9603 24.5681 11.0437 24.5137 11.1497C24.4117 11.3478 24.2636 11.6389 24.0734 12.0148C23.7536 12.647 23.3107 13.5284 22.7563 14.6344C21.8752 16.393 20.9869 18.1732 20.866 18.4158L20.852 18.4438C20.8113 18.527 20.8051 18.623 20.8348 18.7107C20.8646 18.7985 20.9278 18.871 21.0107 18.9123C21.0936 18.9537 21.1896 18.9605 21.2775 18.9315C21.3655 18.9024 21.4384 18.8397 21.4804 18.7571C22.4682 16.7766 24.2738 13.1653 25.0005 11.7394C25.6487 13.0115 27.2512 16.2119 28.5207 18.757C28.541 18.7986 28.5694 18.8358 28.6042 18.8663C28.639 18.8969 28.6795 18.9203 28.7234 18.9352C28.7673 18.95 28.8137 18.9561 28.8599 18.9529C28.9061 18.9498 28.9512 18.9375 28.9927 18.9169C29.0342 18.8962 29.0711 18.8675 29.1015 18.8325C29.1318 18.7975 29.1549 18.7568 29.1694 18.7128C29.1839 18.6688 29.1896 18.6224 29.1861 18.5762C29.1827 18.53 29.1701 18.485 29.1491 18.4437L29.1491 18.4437Z" fill="#272978"/>
<path d="M20.0369 24.9518C19.8899 24.9162 18.1555 24.5159 17.3638 24.2829C17.2755 23.4331 16.567 13.9964 16.2204 9.35855H26.3766C26.3766 8.92469 26.2138 8.50662 25.9205 8.18699C25.6271 7.86736 25.2245 7.66943 24.7922 7.63234L16.0355 6.88095L16.0307 6.81572L16.4991 4.94297C16.5559 4.71476 16.5599 4.47662 16.511 4.24661C16.462 4.0166 16.3613 3.80077 16.2165 3.61547L16.2042 3.60034C16.0562 3.42521 15.8717 3.28447 15.6638 3.18793C15.4558 3.09139 15.2292 3.04138 15 3.04138C14.7707 3.04138 14.5441 3.09139 14.3361 3.18793C14.1282 3.28447 13.9437 3.42521 13.7957 3.60034L13.7834 3.61547C13.6386 3.80077 13.5379 4.0166 13.4889 4.24661C13.44 4.47662 13.444 4.71476 13.5008 4.94297L13.9693 6.81572L13.9644 6.88095L5.20772 7.63234C4.77545 7.66943 4.37283 7.86736 4.07945 8.18699C3.78607 8.50662 3.62329 8.92469 3.62329 9.35855H13.7795C13.4329 13.9964 12.7244 23.4331 12.6361 24.2829C11.8444 24.5159 10.1101 24.9162 9.96303 24.9518C9.64809 25.0283 9.35711 25.1819 9.11629 25.3988C8.87547 25.6157 8.69236 25.8891 8.58345 26.1943L8.31204 26.9586H21.6879L21.4165 26.1943C21.3076 25.8891 21.1244 25.6157 20.8836 25.3988C20.6428 25.1819 20.3518 25.0283 20.0369 24.9518Z" fill="#272978"/>
</svg>
