<svg width="30" height="30" viewBox="0 0 30 30" fill="none" xmlns="http://www.w3.org/2000/svg">
<path d="M15 0.349998C6.9221 0.349998 0.349976 6.92213 0.349976 15C0.349976 23.0779 6.9221 29.65 15 29.65C23.0778 29.65 29.65 23.0779 29.65 15C29.65 6.92213 23.0778 0.349998 15 0.349998ZM15 27.95C7.85945 27.95 2.04998 22.1405 2.04998 15C2.04998 7.85947 7.85945 2.05 15 2.05C22.1405 2.05 27.95 7.85947 27.95 15C27.95 22.1405 22.1405 27.95 15 27.95Z" fill="#272978" stroke="#272978" stroke-width="0.5"/>
<path d="M18.95 10.8V11.05H19.2H20.4H20.65V10.8C20.65 8.3459 18.6534 6.35 16.2 6.35H15.85V4.8V4.55H15.6H14.4H14.15V4.8V6.35H13.8C11.3465 6.35 9.34998 8.3459 9.34998 10.8V11.4C9.34998 13.8541 11.3465 15.85 13.8 15.85H16.2C17.7161 15.85 18.95 17.0839 18.95 18.6V19.2C18.95 20.7161 17.7161 21.95 16.2 21.95H13.8C12.2838 21.95 11.05 20.7161 11.05 19.2V18.95H10.8H9.59998H9.34998V19.2C9.34998 21.6541 11.3465 23.65 13.8 23.65H14.15V25.2V25.45H14.4H15.6H15.85V25.2V23.65H16.2C18.6534 23.65 20.65 21.6541 20.65 19.2V18.6C20.65 16.1459 18.6534 14.15 16.2 14.15H13.8C12.2838 14.15 11.05 12.9161 11.05 11.4V10.8C11.05 9.28387 12.2838 8.05 13.8 8.05H16.2C17.7161 8.05 18.95 9.28387 18.95 10.8Z" fill="#272978" stroke="#272978" stroke-width="0.5"/>
</svg>
