<svg width="35" height="35" viewBox="0 0 35 35" fill="none" xmlns="http://www.w3.org/2000/svg">
<path d="M26.3923 15.6789L27.847 13.1961L26.3595 10.6312H23.5157L22.061 13.1961L23.6524 15.6789H26.3923Z" fill="#ECECEC"/>
<path d="M18.9329 11.4078L20.3876 8.92504L18.8946 6.36566H16.0563L14.5962 8.92504L16.1931 11.4078H18.9329Z" fill="#ECECEC"/>
<path d="M8.55879 10.6312L7.09863 13.1961L8.69551 15.6789H11.4354L12.89 13.1961L11.3971 10.6312H8.55879Z" fill="#ECECEC"/>
<path d="M18.9111 20.0211L20.3712 17.5383L18.8783 14.9789H16.0345L14.5798 17.5383L16.1767 20.0211H18.9111Z" fill="#2EC342"/>
<path d="M8.55879 19.2828L7.09863 21.8477L8.69551 24.3305H11.4354L12.89 21.8477L11.3971 19.2828H8.55879Z" fill="#ECECEC"/>
<path d="M16.0619 23.5922L14.6072 26.1515L16.1986 28.6344H18.9384L20.3931 26.1515L18.9056 23.5922H16.0619Z" fill="#ECECEC"/>
<path d="M26.5289 19.2828H23.6852L22.2305 21.8477L23.8273 24.3305H26.5617L28.0219 21.8477L26.5289 19.2828Z" fill="#ECECEC"/>
<path d="M20.7101 17.2266L19.3429 14.8586C19.2948 14.7751 19.2254 14.7059 19.1418 14.6579C19.0583 14.6099 18.9635 14.5848 18.8672 14.5851H16.1328C16.0364 14.5848 15.9417 14.6099 15.8581 14.6579C15.7746 14.7059 15.7052 14.7751 15.657 14.8586L14.2898 17.2266C14.2418 17.3097 14.2166 17.404 14.2166 17.5C14.2166 17.596 14.2418 17.6903 14.2898 17.7734L15.657 20.1414C15.7052 20.2249 15.7746 20.2941 15.8581 20.3421C15.9417 20.3901 16.0364 20.4152 16.1328 20.4148H18.8672C18.9635 20.4152 19.0583 20.3901 19.1418 20.3421C19.2254 20.2941 19.2948 20.2249 19.3429 20.1414L20.7101 17.7734C20.7581 17.6903 20.7834 17.596 20.7834 17.5C20.7834 17.404 20.7581 17.3097 20.7101 17.2266ZM18.55 19.3211H16.45L15.3945 17.5L16.45 15.6789H18.55L19.6054 17.5L18.55 19.3211Z" fill="#2EC342"/>
<path d="M16.018 11.9984H18.9821C19.0775 11.9978 19.1712 11.9723 19.2537 11.9243C19.3362 11.8763 19.4047 11.8076 19.4524 11.725L20.9344 9.16012C20.9824 9.07698 21.0077 8.98268 21.0077 8.88668C21.0077 8.79069 20.9824 8.69638 20.9344 8.61324L19.4524 6.0484C19.4047 5.96575 19.3362 5.89702 19.2537 5.84905C19.1712 5.80108 19.0775 5.77554 18.9821 5.77496H16.018C15.9226 5.77554 15.829 5.80108 15.7465 5.84905C15.664 5.89702 15.5954 5.96575 15.5477 6.0484L14.0657 8.61324C14.0177 8.69638 13.9924 8.79069 13.9924 8.88668C13.9924 8.98268 14.0177 9.07698 14.0657 9.16012L15.5477 11.725C15.5954 11.8076 15.664 11.8763 15.7465 11.9243C15.829 11.9723 15.9226 11.9978 16.018 11.9984ZM16.3352 6.86871H18.6649L19.8298 8.88668L18.6649 10.9047H16.3352L15.1704 8.88668L16.3352 6.86871Z" fill="#ECECEC"/>
<path d="M18.8398 23.2422H16.1601C16.0638 23.2418 15.969 23.2669 15.8855 23.3149C15.8019 23.3629 15.7325 23.4322 15.6844 23.5156L14.3445 25.8398C14.2965 25.923 14.2712 26.0173 14.2712 26.1133C14.2712 26.2093 14.2965 26.3036 14.3445 26.3867L15.6844 28.7109C15.7325 28.7944 15.8019 28.8636 15.8855 28.9117C15.969 28.9597 16.0638 28.9848 16.1601 28.9844H18.8398C18.9362 28.9848 19.0309 28.9597 19.1145 28.9117C19.198 28.8636 19.2674 28.7944 19.3156 28.7109L20.6554 26.3867C20.7034 26.3036 20.7287 26.2093 20.7287 26.1133C20.7287 26.0173 20.7034 25.923 20.6554 25.8398L19.3156 23.5156C19.2674 23.4322 19.198 23.3629 19.1145 23.3149C19.0309 23.2669 18.9362 23.2418 18.8398 23.2422ZM18.5281 27.8906H16.4719L15.4492 26.1133L16.4719 24.3359H18.5281L19.5508 26.1133L18.5281 27.8906Z" fill="#ECECEC"/>
<path d="M21.6125 13.4695L23.0672 15.9797C23.1149 16.0623 23.1834 16.1311 23.2659 16.179C23.3484 16.227 23.442 16.2525 23.5375 16.2531H26.4414C26.5368 16.2525 26.6304 16.227 26.7129 16.179C26.7954 16.1311 26.864 16.0623 26.9117 15.9797L28.3609 13.4695C28.4089 13.3864 28.4342 13.2921 28.4342 13.1961C28.4342 13.1001 28.4089 13.0058 28.3609 12.9227L26.9117 10.3906C26.864 10.308 26.7954 10.2392 26.7129 10.1913C26.6304 10.1433 26.5368 10.1178 26.4414 10.1172H23.5156C23.4202 10.1178 23.3265 10.1433 23.244 10.1913C23.1615 10.2392 23.093 10.308 23.0453 10.3906L21.5906 12.9062C21.5427 12.9933 21.5195 13.0917 21.5234 13.1909C21.5272 13.2902 21.558 13.3865 21.6125 13.4695ZM23.8547 11.2273H26.1242L27.2562 13.1961L26.1242 15.1594H23.8547L22.7172 13.1961L23.8547 11.2273Z" fill="#ECECEC"/>
<path d="M8.54783 16.2531H11.4463C11.5426 16.2535 11.6374 16.2284 11.7209 16.1804C11.8045 16.1324 11.8739 16.0631 11.922 15.9797L13.3713 13.4695C13.4193 13.3864 13.4445 13.2921 13.4445 13.1961C13.4445 13.1001 13.4193 13.0058 13.3713 12.9227L11.922 10.3906C11.8739 10.3072 11.8045 10.2379 11.7209 10.1899C11.6374 10.1419 11.5426 10.1168 11.4463 10.1172H8.54783C8.45146 10.1168 8.35671 10.1419 8.27316 10.1899C8.18961 10.2379 8.12023 10.3072 8.07205 10.3906L6.62283 12.9063C6.57483 12.9894 6.54956 13.0837 6.54956 13.1797C6.54956 13.2757 6.57483 13.37 6.62283 13.4531L8.07205 15.9633C8.1181 16.0498 8.18656 16.1223 8.27026 16.1733C8.35396 16.2243 8.44983 16.2519 8.54783 16.2531ZM8.85955 11.2273H11.1291L12.2666 13.1961L11.1291 15.1594H8.85955L7.72752 13.1961L8.85955 11.2273Z" fill="#ECECEC"/>
<path d="M28.1094 17.5L30.4337 13.4695C30.4817 13.3864 30.5069 13.2921 30.5069 13.1961C30.5069 13.1001 30.4817 13.0058 30.4337 12.9227L27.9509 8.61329C27.9027 8.52984 27.8333 8.4606 27.7497 8.41258C27.6662 8.36456 27.5714 8.33947 27.4751 8.33986H22.7884L20.4587 4.30939C20.4109 4.22673 20.3424 4.15801 20.2599 4.11004C20.1774 4.06207 20.0838 4.03653 19.9884 4.03595H15.0118C14.9164 4.03653 14.8227 4.06207 14.7402 4.11004C14.6577 4.15801 14.5892 4.22673 14.5415 4.30939L12.2118 8.33986H7.50867C7.4123 8.33947 7.31755 8.36456 7.234 8.41258C7.15045 8.4606 7.08107 8.52984 7.03289 8.61329L4.55007 12.9227C4.50208 13.0058 4.47681 13.1001 4.47681 13.1961C4.47681 13.2921 4.50208 13.3864 4.55007 13.4695L6.87976 17.5L4.55007 21.5359C4.50208 21.6191 4.47681 21.7134 4.47681 21.8094C4.47681 21.9054 4.50208 21.9997 4.55007 22.0828L7.03289 26.3867C7.08107 26.4702 7.15045 26.5394 7.234 26.5874C7.31755 26.6355 7.4123 26.6606 7.50867 26.6602H12.2118L14.5415 30.6961C14.5892 30.7788 14.6577 30.8475 14.7402 30.8955C14.8227 30.9434 14.9164 30.969 15.0118 30.9695H19.9884C20.0838 30.969 20.1774 30.9434 20.2599 30.8955C20.3424 30.8475 20.4109 30.7788 20.4587 30.6961L22.7884 26.6602H27.4751C27.5714 26.6606 27.6662 26.6355 27.7497 26.5874C27.8333 26.5394 27.9027 26.4702 27.9509 26.3867L30.4337 22.0828C30.4817 21.9997 30.5069 21.9054 30.5069 21.8094C30.5069 21.7134 30.4817 21.6191 30.4337 21.5359L28.1094 17.5ZM29.329 13.1961L27.1415 16.9531H22.8157L20.6282 13.1961L22.8157 9.43361H27.1579L29.329 13.1961ZM15.3126 21.2625L13.1251 17.5L15.3126 13.743H19.6876L21.8751 17.5L19.6876 21.2625H15.3126ZM15.3126 5.1297H19.6876L21.8751 8.88673L19.6876 12.6492H15.3126L13.1251 8.88673L15.3126 5.1297ZM7.82586 9.43361H12.168L14.3555 13.1961L12.168 16.9531H7.82586L5.63836 13.1961L7.82586 9.43361ZM5.63836 21.8094L7.82586 18.0469H12.168L14.3555 21.8094L12.168 25.5664H7.82586L5.63836 21.8094ZM19.6876 29.8758H15.3126L13.1251 26.1133L15.3126 22.3563H19.6876L21.8751 26.1133L19.6876 29.8758ZM27.1743 25.5664H22.8157L20.6282 21.8094L22.8157 18.0469H27.1579L29.3454 21.8094L27.1743 25.5664Z" fill="#ECECEC"/>
<path d="M26.3976 18.8234H23.5812C23.4849 18.823 23.3901 18.8481 23.3066 18.8962C23.223 18.9442 23.1536 19.0134 23.1054 19.0969L21.7 21.5359C21.652 21.6191 21.6267 21.7134 21.6267 21.8094C21.6267 21.9054 21.652 21.9997 21.7 22.0828L23.1054 24.5164C23.1536 24.5999 23.223 24.6691 23.3066 24.7171C23.3901 24.7651 23.4849 24.7902 23.5812 24.7898H26.3976C26.4931 24.7893 26.5867 24.7637 26.6692 24.7157C26.7517 24.6678 26.8202 24.5991 26.8679 24.5164L28.2789 22.0828C28.3269 21.9997 28.3521 21.9054 28.3521 21.8094C28.3521 21.7134 28.3269 21.6191 28.2789 21.5359L26.8679 19.0969C26.8202 19.0142 26.7517 18.9455 26.6692 18.8975C26.5867 18.8495 26.4931 18.824 26.3976 18.8234ZM26.0804 23.6961H23.8929L22.7992 21.8094L23.8929 19.9172H26.0804L27.1742 21.8094L26.0804 23.6961Z" fill="#ECECEC"/>
<path d="M13.311 21.536L11.8891 19.075C11.841 18.9916 11.7716 18.9223 11.688 18.8743C11.6045 18.8263 11.5097 18.8012 11.4134 18.8016H8.57507C8.47871 18.8012 8.38395 18.8263 8.3004 18.8743C8.21685 18.9223 8.14747 18.9916 8.09929 19.075L6.68289 21.536C6.63489 21.6191 6.60962 21.7134 6.60962 21.8094C6.60962 21.9054 6.63489 21.9997 6.68289 22.0828L8.09929 24.5383C8.14747 24.6218 8.21685 24.691 8.3004 24.739C8.38395 24.787 8.47871 24.8121 8.57507 24.8117H11.4134C11.5097 24.8121 11.6045 24.787 11.688 24.739C11.7716 24.691 11.841 24.6218 11.8891 24.5383L13.311 22.0828C13.359 21.9997 13.3843 21.9054 13.3843 21.8094C13.3843 21.7134 13.359 21.6191 13.311 21.536ZM11.1235 23.7235H8.93601L7.84226 21.8149L8.93601 19.9008H11.1235L12.2173 21.8149L11.1235 23.7235Z" fill="#ECECEC"/>
</svg>
