<svg width="34" height="35" viewBox="0 0 34 35" fill="none" xmlns="http://www.w3.org/2000/svg">
<path d="M4.77985 34.2067C4.60469 34.2067 4.46252 34.0646 4.46252 33.8894V4.93726C4.46252 4.7621 4.60469 4.61993 4.77985 4.61993C4.95502 4.61993 5.09718 4.7621 5.09718 4.93726V33.8894C5.09718 34.0646 4.95502 34.2067 4.77985 34.2067Z" fill="#ECECEC"/>
<path d="M1.73359 9.27497C1.88115 9.36922 2.07758 9.32511 2.17183 9.17707L4.77981 5.08208L7.38795 9.17707C7.4822 9.32527 7.67863 9.36922 7.82619 9.27497C7.97375 9.18072 8.01643 8.98303 7.92345 8.8361L5.04764 4.32096C4.98957 4.22989 4.88834 4.17419 4.77981 4.17419C4.67144 4.17419 4.57037 4.22989 4.51198 4.32096L1.63633 8.8361C1.60285 8.88941 1.58667 8.94828 1.58667 9.00683C1.58667 9.11139 1.63871 9.2142 1.73359 9.27497Z" fill="#ECECEC"/>
<path d="M30.8563 31.331H1.90412C1.72896 31.331 1.58679 31.1888 1.58679 31.0136C1.58679 30.8385 1.72896 30.6963 1.90412 30.6963H30.8563C31.0314 30.6963 31.1736 30.8385 31.1736 31.0136C31.1736 31.1888 31.0313 31.331 30.8563 31.331Z" fill="#ECECEC"/>
<path d="M26.5185 27.9674C26.4242 28.115 26.4685 28.3114 26.6164 28.4057L30.7114 31.0138L26.6164 33.6219C26.4683 33.7162 26.4242 33.9126 26.5185 34.0602C26.6127 34.2077 26.8104 34.2504 26.9575 34.1574L31.4725 31.2816C31.5636 31.2236 31.6194 31.1223 31.6194 31.0138C31.6194 30.9054 31.5636 30.8044 31.4725 30.746L26.9575 27.8702C26.904 27.8367 26.8453 27.8205 26.7869 27.8205C26.6821 27.8205 26.5792 27.8725 26.5185 27.9674Z" fill="#ECECEC"/>
<path d="M12.1128 16.0122H7.6554V28.1381H12.1128V16.0122Z" fill="#ECECEC"/>
<path d="M19.4456 11.6989H14.9884V28.1379H19.4456V11.6989Z" fill="#FE7058"/>
<path d="M26.779 7.38525H22.3214V28.1381H26.779V7.38525Z" fill="#ECECEC"/>
</svg>
