<svg width="35" height="35" viewBox="0 0 35 35" fill="none" xmlns="http://www.w3.org/2000/svg">
<path d="M26.9678 26.7969C26.1064 26.0859 24.6709 25.6211 23.0371 25.6211C21.4102 25.6211 19.9746 26.0859 19.1133 26.7969H18.2656V28.3418C18.2656 29.8457 20.4053 31.0625 23.0439 31.0625C25.6826 31.0625 27.8223 29.8457 27.8223 28.3418V26.7969H26.9678Z" fill="#B0680A"/>
<path d="M26.9678 25.0605C26.1064 24.3496 24.6709 23.8848 23.0371 23.8848C21.4102 23.8848 19.9746 24.3496 19.1064 25.0605H18.2588V26.6055C18.2588 28.1094 20.3984 29.3262 23.0371 29.3262C25.6758 29.3262 27.8154 28.1094 27.8154 26.6055V25.0605H26.9678Z" fill="#DB9335"/>
<path d="M26.9678 23.3311C26.1064 22.6201 24.6709 22.1553 23.0371 22.1553C21.4102 22.1553 19.9746 22.6201 19.1064 23.3311H18.2588V24.876C18.2588 26.3799 20.3984 27.5967 23.0371 27.5967C25.6758 27.5967 27.8154 26.3799 27.8154 24.876V23.3311H26.9678Z" fill="#B0680A"/>
<path d="M26.9678 21.5947C26.1064 20.8838 24.6709 20.4189 23.0371 20.4189C21.4102 20.4189 19.9746 20.8838 19.1064 21.5947H18.2588V23.1396C18.2588 24.6436 20.3984 25.8603 23.0371 25.8603C25.6758 25.8603 27.8154 24.6436 27.8154 23.1396V21.5947H26.9678Z" fill="#DB9335"/>
<path d="M26.9678 19.8584C26.1064 19.1475 24.6709 18.6826 23.0371 18.6826C21.4102 18.6826 19.9678 19.1475 19.1064 19.8584H18.2588V21.4033C18.2588 22.9072 20.3984 24.124 23.0371 24.124C25.6758 24.124 27.8154 22.9072 27.8154 21.4033V19.8584H26.9678Z" fill="#B0680A"/>
<path d="M27.8154 19.8584C27.8154 21.3623 25.6758 22.5791 23.0371 22.5791C20.3984 22.5791 18.2588 21.3623 18.2588 19.8584C18.2588 18.3545 20.3984 17.1377 23.0371 17.1377C25.6758 17.1377 27.8154 18.3613 27.8154 19.8584Z" fill="#DB9335"/>
<path d="M27.0566 19.8584C27.0566 21.123 25.2588 22.1484 23.0303 22.1484C20.8086 22.1484 19.0107 21.123 19.0107 19.8584C19.0107 18.5938 20.8086 17.5684 23.0303 17.5684C25.2588 17.5684 27.0566 18.5938 27.0566 19.8584Z" fill="#B0680A"/>
<path d="M26.1543 19.8584C26.1543 20.8428 24.7529 21.6357 23.0303 21.6357C21.3076 21.6357 19.9131 20.8428 19.9131 19.8584C19.9131 18.8809 21.3076 18.0811 23.0303 18.0811C24.7598 18.0811 26.1543 18.8809 26.1543 19.8584Z" fill="#DB9335"/>
<path d="M22.7363 20.9863C22.5312 20.9795 22.3467 20.9658 22.1895 20.9521C22.0322 20.9316 21.9092 20.9043 21.8271 20.877L22.0391 20.5215C22.1006 20.542 22.1963 20.5625 22.3125 20.583C22.4287 20.6035 22.5723 20.6172 22.7363 20.624V19.9951C22.6201 19.9678 22.5107 19.9336 22.4014 19.8994C22.292 19.8652 22.1895 19.8242 22.1074 19.7764C22.0186 19.7285 21.9502 19.667 21.8955 19.5986C21.8477 19.5303 21.8203 19.4482 21.8203 19.3525C21.8203 19.1748 21.9023 19.0381 22.0664 18.9355C22.2305 18.8398 22.4561 18.7715 22.7432 18.7441V18.4639H23.3105V18.7305C23.4678 18.7373 23.6113 18.751 23.7275 18.7646C23.8438 18.7852 23.96 18.8057 24.0625 18.833L23.8643 19.1748C23.8027 19.1611 23.7207 19.1406 23.6318 19.127C23.5361 19.1133 23.4268 19.0996 23.3105 19.0928V19.6738C23.4268 19.7012 23.5361 19.7354 23.6523 19.7695C23.7686 19.8037 23.8711 19.8516 23.96 19.8994C24.0488 19.9473 24.124 20.0088 24.1787 20.0771C24.2334 20.1455 24.2607 20.2207 24.2607 20.3164C24.2607 20.5078 24.1787 20.6582 24.0078 20.7607C23.8369 20.8701 23.6045 20.9385 23.3105 20.9658V21.2529H22.7432V20.9863H22.7363ZM22.5244 19.3115C22.5244 19.373 22.5654 19.4277 22.6543 19.4687C22.7432 19.5098 22.8457 19.5508 22.9756 19.585V19.0791C22.8047 19.0859 22.6885 19.1064 22.627 19.1475C22.5586 19.1953 22.5244 19.25 22.5244 19.3115ZM23.543 20.3574C23.543 20.2891 23.4951 20.2344 23.4062 20.1934C23.3105 20.1523 23.2012 20.1113 23.0713 20.0771V20.624C23.2285 20.6172 23.3516 20.583 23.4268 20.542C23.5088 20.4941 23.543 20.4326 23.543 20.3574Z" fill="#B0680A"/>
<path d="M15.5859 17.165V16.2695V17.165C13.3848 17.165 11.3135 16.3105 9.76172 14.752C8.20313 13.1934 7.34863 11.1289 7.34863 8.92774C7.34863 6.72656 8.20313 4.65527 9.76172 3.10352C11.3203 1.54492 13.3848 0.69043 15.5859 0.69043C17.7871 0.69043 19.8516 1.54492 21.4102 3.10352C22.9688 4.66211 23.8232 6.72656 23.8232 8.92774C23.8232 11.1289 22.9688 13.1934 21.4102 14.752C19.8584 16.3037 17.7871 17.165 15.5859 17.165ZM15.5859 2.47461C13.8633 2.47461 12.2432 3.14453 11.0264 4.36133C9.80957 5.57812 9.13281 7.19824 9.13965 8.92774C9.13965 10.6504 9.80957 12.2705 11.0264 13.4873C12.2432 14.7041 13.8633 15.3809 15.5859 15.3809C17.3086 15.3809 18.9287 14.7109 20.1455 13.4941C21.3623 12.2773 22.0322 10.6572 22.0322 8.93457C22.0322 7.21191 21.3623 5.5918 20.1455 4.36816C18.9287 3.14453 17.3086 2.47461 15.5859 2.47461Z" fill="#ECECEC"/>
<path d="M16.4814 16.1328H14.6973V21.7178H16.4814V16.1328Z" fill="#ECECEC"/>
<path d="M17.1104 32.5937C17.1104 33.0928 16.707 33.4961 16.208 33.4961H14.9639C14.4648 33.4961 14.0615 33.0928 14.0615 32.5937V20.8633C14.0615 20.3643 14.4648 19.9609 14.9639 19.9609H16.208C16.707 19.9609 17.1104 20.3643 17.1104 20.8633V32.5937Z" fill="#ECECEC"/>
<path d="M17.1104 21.8066H14.0615V22.251H17.1104V21.8066Z" fill="#ECECEC"/>
<path d="M17.1104 22.8594H14.0615V23.3037H17.1104V22.8594Z" fill="#ECECEC"/>
<path d="M17.1104 31.2061H14.0615V31.6504H17.1104V31.2061Z" fill="#ECECEC"/>
<path d="M17.1104 30.1533H14.0615V30.5977H17.1104V30.1533Z" fill="#ECECEC"/>
<path d="M17.8965 9.42676C18.1494 9.00977 18.293 8.51758 18.293 7.99805C18.293 6.47363 17.0557 5.23633 15.5312 5.23633C14.0068 5.23633 12.7695 6.47363 12.7695 7.99805C12.7695 8.51758 12.9131 9.00977 13.166 9.42676C13.9111 10.7598 14.0615 11.0811 14.0752 11.6895C14.0889 12.6055 14.0752 13.3301 14.0752 13.3301H15.5312H16.9873C16.9873 13.3301 16.9736 12.5986 16.9873 11.6895C16.9941 11.0742 17.1514 10.7598 17.8965 9.42676Z" fill="#ECECEC"/>
<path d="M15.5312 13.7471H14.4922C14.6426 14.5811 15.5244 14.5811 15.5244 14.5811C15.5244 14.5811 16.4062 14.5811 16.5635 13.7471H15.5312Z" fill="#ECECEC"/>
<path d="M17.4111 12.3867C17.4111 12.6533 17.1992 12.8652 16.9326 12.8652H14.1299C13.8633 12.8652 13.6514 12.6533 13.6514 12.3867C13.6514 12.1201 13.8633 11.9082 14.1299 11.9082H16.9326C17.1924 11.9082 17.4111 12.127 17.4111 12.3867Z" fill="#ECECEC"/>
<path d="M17.2607 12.2979C17.2607 12.5098 17.0625 12.6807 16.8164 12.6807H14.2393C13.9932 12.6807 13.7949 12.5098 13.7949 12.2979C13.7949 12.086 13.9932 11.9151 14.2393 11.9151H16.8164C17.0625 11.9083 17.2607 12.0792 17.2607 12.2979Z" fill="#ECECEC"/>
<path d="M17.4111 13.3301C17.4111 13.5967 17.1992 13.8086 16.9326 13.8086H14.1299C13.8633 13.8086 13.6514 13.5967 13.6514 13.3301C13.6514 13.0635 13.8633 12.8516 14.1299 12.8516H16.9326C17.1924 12.8516 17.4111 13.0635 17.4111 13.3301Z" fill="#ECECEC"/>
<path d="M15.5859 3.26758C15.6885 3.26758 15.7773 3.34961 15.7773 3.45898V4.55957C15.7773 4.66211 15.6885 4.74414 15.5859 4.74414C15.4834 4.74414 15.3945 4.66211 15.3945 4.55957V3.45898C15.4014 3.35645 15.4834 3.26758 15.5859 3.26758Z" fill="#B0680A"/>
<path d="M13.084 3.91696C13.1729 3.86227 13.2891 3.89645 13.3438 3.98532L13.8975 4.94235C13.9522 5.03122 13.918 5.14743 13.8291 5.20212C13.7403 5.25681 13.6241 5.22263 13.5694 5.13376L13.0157 4.17673C12.961 4.08786 12.9883 3.97165 13.084 3.91696Z" fill="#B0680A"/>
<path d="M11.2383 5.73532C11.293 5.64645 11.4024 5.61227 11.4981 5.66696L12.4551 6.22067C12.544 6.27536 12.5782 6.39157 12.5235 6.48044C12.4688 6.56931 12.3526 6.60349 12.2637 6.5488L11.3067 5.99509C11.211 5.9404 11.1836 5.82419 11.2383 5.73532Z" fill="#B0680A"/>
<path d="M10.5479 8.23047C10.5479 8.12793 10.6299 8.03906 10.7393 8.03906H11.8398C11.9424 8.03906 12.0312 8.12109 12.0312 8.23047C12.0312 8.33301 11.9492 8.42188 11.8398 8.42188H10.7324C10.6299 8.42188 10.5479 8.33984 10.5479 8.23047Z" fill="#B0680A"/>
<path d="M11.1972 10.7392C11.1425 10.6504 11.1767 10.5341 11.2656 10.4795L12.2226 9.92575C12.3115 9.87106 12.4277 9.90524 12.4824 9.99411C12.5371 10.083 12.5029 10.1992 12.414 10.2539L11.457 10.8076C11.3613 10.8623 11.2451 10.8281 11.1972 10.7392Z" fill="#B0680A"/>
<path d="M18.0947 3.91696C18.0058 3.86227 17.8896 3.89645 17.8349 3.98532L17.2812 4.94235C17.2265 5.03122 17.2607 5.14743 17.3496 5.20212C17.4384 5.25681 17.5547 5.22263 17.6093 5.13376L18.1631 4.17673C18.2178 4.08786 18.1836 3.97165 18.0947 3.91696Z" fill="#B0680A"/>
<path d="M19.9404 5.73532C19.8857 5.64645 19.7695 5.61227 19.6806 5.66696L18.7304 6.22067C18.6416 6.27536 18.6074 6.39157 18.6621 6.48044C18.7168 6.56931 18.833 6.60349 18.9218 6.5488L19.8789 5.99509C19.9609 5.9404 19.9951 5.82419 19.9404 5.73532Z" fill="#B0680A"/>
<path d="M20.6309 8.23047C20.6309 8.12793 20.5488 8.03906 20.4395 8.03906H19.3389C19.2363 8.03906 19.1475 8.12109 19.1475 8.23047C19.1475 8.33301 19.2295 8.42188 19.3389 8.42188H20.4395C20.5488 8.42188 20.6309 8.33984 20.6309 8.23047Z" fill="#B0680A"/>
<path d="M19.9814 10.7392C20.0361 10.6504 20.0019 10.5341 19.9131 10.4795L18.956 9.92575C18.8672 9.87106 18.7509 9.90524 18.6963 9.99411C18.6416 10.083 18.6758 10.1992 18.7646 10.2539L19.7216 10.8076C19.8105 10.8623 19.9267 10.8281 19.9814 10.7392Z" fill="#B0680A"/>
<path d="M17.2607 13.2344C17.2607 13.4463 17.0625 13.6172 16.8164 13.6172H14.2393C13.9932 13.6172 13.7949 13.4463 13.7949 13.2344C13.7949 13.0225 13.9932 12.8516 14.2393 12.8516H16.8164C17.0625 12.8516 17.2607 13.0225 17.2607 13.2344Z" fill="#ECECEC"/>
<path d="M32.8535 28.3281C32.8535 30.707 30.9258 32.6348 28.5469 32.6348C26.168 32.6348 24.2402 30.707 24.2402 28.3281C24.2402 25.9492 26.168 24.0215 28.5469 24.0215C30.9258 24.0215 32.8535 25.9492 32.8535 28.3281Z" fill="#ECECEC"/>
<path d="M32.1289 28.3281C32.1289 30.3037 30.5225 31.9102 28.5469 31.9102C26.5713 31.9102 24.9648 30.3105 24.9648 28.3281C24.9648 26.3525 26.5645 24.7461 28.5469 24.7461C30.5225 24.7529 32.1289 26.3525 32.1289 28.3281Z" fill="#B0680A"/>
<path d="M31.4521 28.3281C31.4521 29.9277 30.1533 31.2334 28.5469 31.2334C26.9473 31.2334 25.6416 29.9346 25.6416 28.3281C25.6416 26.7217 26.9404 25.4229 28.5469 25.4229C30.1465 25.4229 31.4521 26.7285 31.4521 28.3281Z" fill="#ECECEC"/>
<path d="M28.2734 30.167C28.082 30.1602 27.9111 30.1396 27.7676 30.1055C27.624 30.0713 27.5078 30.0303 27.4258 29.9893L27.624 29.4082C27.6855 29.4492 27.7676 29.4834 27.8838 29.5176C27.9932 29.5518 28.123 29.5791 28.2734 29.5859V28.5605C28.1709 28.5127 28.0615 28.4648 27.959 28.4033C27.8564 28.3486 27.7607 28.2803 27.6855 28.1982C27.6035 28.1162 27.542 28.0205 27.4873 27.9043C27.4395 27.7881 27.4121 27.6514 27.4121 27.501C27.4121 27.207 27.4873 26.9814 27.6445 26.8242C27.7949 26.6602 28.0068 26.5576 28.2734 26.5098V26.0449H28.7998V26.4893C28.9502 26.4961 29.0801 26.5166 29.1895 26.5508C29.2988 26.585 29.4014 26.6191 29.4971 26.6602L29.3125 27.2207C29.2578 27.1934 29.1826 27.166 29.0938 27.1387C29.0049 27.1113 28.9023 27.0908 28.793 27.0771V28.0273C28.8955 28.0752 29.0049 28.1299 29.1074 28.1846C29.21 28.2461 29.3057 28.3145 29.3877 28.3965C29.4697 28.4785 29.5381 28.5742 29.5928 28.6836C29.6475 28.793 29.668 28.9229 29.668 29.0732C29.668 29.3877 29.5928 29.627 29.4355 29.8047C29.2783 29.9756 29.0596 30.0918 28.7861 30.1396V30.6113H28.2598V30.167H28.2734ZM28.0752 27.4395C28.0752 27.542 28.1162 27.624 28.1914 27.6924C28.2734 27.7607 28.3691 27.8223 28.4922 27.8838V27.0566C28.335 27.0635 28.2188 27.1045 28.1641 27.1729C28.1025 27.248 28.0752 27.3369 28.0752 27.4395ZM29.0186 29.1484C29.0186 29.0391 28.9775 28.9502 28.8887 28.8818C28.8066 28.8135 28.6973 28.752 28.5811 28.6973V29.5859C28.7314 29.5723 28.8408 29.5244 28.9092 29.4492C28.9844 29.3672 29.0186 29.2715 29.0186 29.1484Z" fill="#B0680A"/>
<path d="M11.0469 29.4014C11.0469 29.4014 7.6905 29.4766 6.96589 28.8477C6.24129 29.4766 2.88484 29.4014 2.88484 29.4014C2.88484 29.4014 2.45418 29.5176 2.46785 30.1123C2.47468 30.7002 2.88484 30.7412 2.88484 30.7412H6.96589H11.0469C11.0469 30.7412 11.4571 30.7002 11.4639 30.1123C11.4776 29.5176 11.0469 29.4014 11.0469 29.4014Z" fill="#ECECEC"/>
<path d="M11.0469 29.4014C11.0469 29.4014 11.0059 29.4014 10.7872 29.4014C10.8692 29.4287 11.1563 29.5449 11.1495 29.9209C11.1427 30.3584 10.6778 30.29 10.6778 30.29H6.96589H3.25398C3.25398 30.29 2.79597 30.3584 2.7823 29.9209C2.77547 29.5381 3.06257 29.4219 3.14461 29.4014C2.92586 29.4014 2.88484 29.4014 2.88484 29.4014C2.88484 29.4014 2.45418 29.5176 2.46785 30.1123C2.47468 30.7002 2.88484 30.7412 2.88484 30.7412H6.96589H11.0469C11.0469 30.7412 11.4571 30.7002 11.4639 30.1123C11.4776 29.5176 11.0469 29.4014 11.0469 29.4014Z" fill="#ECECEC"/>
<path d="M8.05273 16.7344C8.05273 17.0625 7.78613 17.3291 7.45801 17.3291H6.4668C6.13867 17.3291 5.87207 17.0625 5.87207 16.7344C5.87207 16.4062 6.13867 16.1396 6.4668 16.1396H7.45801C7.78613 16.1465 8.05273 16.4131 8.05273 16.7344Z" fill="#ECECEC"/>
<path d="M6.96582 17.1377C3.53418 17.1377 0.758789 19.9199 0.758789 23.3447C0.758789 26.7764 3.54102 29.5518 6.96582 29.5518C10.3975 29.5518 13.1729 26.7695 13.1729 23.3447C13.1729 19.9199 10.3906 17.1377 6.96582 17.1377ZM6.96582 28.294C4.23828 28.294 2.02344 26.0791 2.02344 23.3516C2.02344 20.6172 4.23828 18.4092 6.96582 18.4092C9.69336 18.4092 11.9082 20.624 11.9082 23.3516C11.9082 26.0791 9.69336 28.294 6.96582 28.294Z" fill="#ECECEC"/>
<path d="M6.96582 18.4092C4.23828 18.4092 2.02344 20.624 2.02344 23.3516C2.02344 26.0791 4.23828 28.2939 6.96582 28.2939C9.69336 28.2939 11.9082 26.0791 11.9082 23.3516C11.9082 20.6172 9.69336 18.4092 6.96582 18.4092Z" fill="#ECECEC"/>
<path d="M6.96582 18.4092C4.39551 18.4092 2.31055 20.4941 2.31055 23.0645C2.31055 25.6348 4.39551 27.7197 6.96582 27.7197C9.53613 27.7197 11.6211 25.6348 11.6211 23.0645C11.6211 20.4873 9.53613 18.4092 6.96582 18.4092Z" fill="white"/>
<path d="M8.64061 22.6884C7.84081 23.5292 7.12987 24.1513 7.04784 24.0693C6.96581 23.9941 7.54003 23.2421 8.33983 22.4013C9.13963 21.5605 9.85057 20.9384 9.9326 21.0205C10.0146 21.0956 9.43358 21.8476 8.64061 22.6884Z" fill="#ECECEC"/>
<path d="M5.6601 22.4765C6.50092 23.2763 7.12299 23.9872 7.04095 24.0693C6.95892 24.1513 6.21381 23.5703 5.37299 22.7773C4.53217 21.9775 3.9101 21.2665 3.99213 21.1845C4.07416 21.0956 4.81928 21.6767 5.6601 22.4765Z" fill="#ECECEC"/>
<path d="M7.11621 28.0615C7.11621 28.4922 7.04785 28.8477 6.96582 28.8477C6.88379 28.8477 6.81543 28.499 6.81543 28.0615C6.81543 27.624 6.88379 27.2754 6.96582 27.2754C7.04785 27.2754 7.11621 27.6309 7.11621 28.0615Z" fill="#ECECEC"/>
<path d="M7.11621 18.6348C7.11621 18.2041 7.04785 17.8486 6.96582 17.8486C6.88379 17.8486 6.81543 18.2041 6.81543 18.6348C6.81543 19.0654 6.88379 19.4209 6.96582 19.4209C7.04785 19.4209 7.11621 19.0654 7.11621 18.6348Z" fill="#ECECEC"/>
<path d="M11.6758 23.1943C12.1064 23.1943 12.4619 23.2627 12.4619 23.3447C12.4619 23.4268 12.1133 23.4951 11.6758 23.4951C11.2383 23.4951 10.8896 23.4268 10.8896 23.3447C10.8896 23.2627 11.2451 23.1943 11.6758 23.1943Z" fill="#ECECEC"/>
<path d="M2.24902 23.1943C1.81836 23.1943 1.46289 23.2627 1.46289 23.3447C1.46289 23.4268 1.81836 23.4951 2.24902 23.4951C2.67969 23.4951 3.03516 23.4268 3.03516 23.3447C3.03516 23.2627 2.68652 23.1943 2.24902 23.1943Z" fill="#ECECEC"/>
<path d="M10.6093 26.8311C10.8485 27.0703 10.9989 27.2959 10.9579 27.3438C10.91 27.3916 10.6845 27.2344 10.4452 26.9952C10.2059 26.7559 10.0556 26.5303 10.0966 26.4825C10.1444 26.4346 10.3768 26.5918 10.6093 26.8311Z" fill="#ECECEC"/>
<path d="M3.48636 19.7012C3.24711 19.4619 3.02152 19.3115 2.97367 19.3525C2.92582 19.4004 3.08304 19.6328 3.3223 19.8652C3.56156 20.1045 3.78714 20.2549 3.835 20.2139C3.87601 20.1729 3.71879 19.9404 3.48636 19.7012Z" fill="#ECECEC"/>
<path d="M10.4453 19.7012C10.6778 19.4619 10.9102 19.3115 10.958 19.3525C11.0059 19.4004 10.8487 19.6328 10.6094 19.8652C10.3702 20.1045 10.1446 20.2549 10.0967 20.2139C10.0489 20.1729 10.2061 19.9404 10.4453 19.7012Z" fill="#ECECEC"/>
<path d="M3.31532 26.8311C3.07606 27.0703 2.92567 27.2959 2.96668 27.3438C3.01454 27.3916 3.24012 27.2344 3.47938 26.9952C3.71864 26.7559 3.86903 26.5303 3.82801 26.4825C3.787 26.4346 3.55457 26.5918 3.31532 26.8311Z" fill="#ECECEC"/>
</svg>
