<svg width="35" height="35" viewBox="0 0 35 35" fill="none" xmlns="http://www.w3.org/2000/svg">
<path d="M16.8276 19.9761L12.5742 18.9462L9.99283 16.0258C9.72272 15.5224 9.32112 15.1016 8.83079 14.8083C8.34046 14.515 7.77976 14.3602 7.20841 14.3604C6.79348 14.3604 6.3826 14.4421 5.99925 14.6009C5.61589 14.7597 5.26757 14.9924 4.97416 15.2858C4.68076 15.5792 4.44802 15.9275 4.28923 16.3109C4.13044 16.6942 4.04871 17.1051 4.04871 17.52V24.6522C4.04871 25.4902 4.3816 26.2939 4.97416 26.8865C5.56672 27.479 6.3704 27.8119 7.2084 27.8119C7.62334 27.8119 8.03421 27.7302 8.41756 27.5714C8.80092 27.4126 9.14924 27.1799 9.44264 26.8865C9.73605 26.5931 9.96879 26.2447 10.1276 25.8614C10.2864 25.478 10.3681 25.0672 10.3681 24.6522V21.1539L10.698 21.4251L10.8463 21.5472C11.0236 21.692 11.2359 21.7876 11.4619 21.8244L16.3119 22.5749C16.6513 22.6308 16.9991 22.5524 17.2818 22.3565C17.5646 22.1606 17.7601 21.8624 17.827 21.525C17.894 21.1876 17.8271 20.8374 17.6406 20.5484C17.4541 20.2594 17.1626 20.0542 16.8276 19.9761V19.9761Z" fill="#ECECEC"/>
<path d="M1.04707 18.3727C0.849175 18.5754 0.735831 18.8457 0.730058 19.1289L0.636329 23.6555C0.630687 23.9348 0.733557 24.2054 0.923312 24.4104C1.11307 24.6155 1.37493 24.7389 1.65383 24.7549C1.93274 24.7709 2.20697 24.6781 2.41888 24.496C2.63078 24.314 2.76384 24.0568 2.79009 23.7787L3.10078 20.4801V17.5196C3.10021 16.9826 3.2058 16.4507 3.41147 15.9546L1.15449 18.2621L1.04707 18.3727Z" fill="#ECECEC"/>
<path d="M5.37399 11.6742C5.47178 12.1776 5.74164 12.6312 6.13729 12.9574C6.53294 13.2836 7.02974 13.462 7.54251 13.462C8.05527 13.462 8.55207 13.2836 8.94772 12.9574C9.34337 12.6312 9.61323 12.1776 9.71102 11.6742L10.048 9.93458C10.0928 9.60544 10.0666 9.27053 9.97126 8.95235C9.87588 8.63416 9.71348 8.34009 9.495 8.08989C9.27651 7.83968 9.00699 7.63915 8.70456 7.50177C8.40213 7.36439 8.0738 7.29334 7.74163 7.2934H7.34338C7.01121 7.29334 6.68288 7.36439 6.38045 7.50177C6.07802 7.63916 5.8085 7.83969 5.59002 8.08989C5.37154 8.3401 5.20914 8.63417 5.11376 8.95235C5.01838 9.27053 4.99221 9.60545 5.03702 9.93458L5.37399 11.6742Z" fill="#ECECEC"/>
<path d="M34.3559 23.3588L33.7987 18.8658C33.7642 18.5847 33.6239 18.3274 33.4064 18.1462L33.2875 18.0472L29.9419 15.2647C29.8363 15.1776 29.72 15.1044 29.5957 15.0471C29.0375 14.6017 28.3443 14.3595 27.6302 14.3604C27.2152 14.3604 26.8043 14.4421 26.421 14.6009C26.0376 14.7597 25.6893 14.9924 25.3959 15.2858C25.1025 15.5792 24.8698 15.9275 24.711 16.3109C24.5522 16.6942 24.4705 17.1051 24.4705 17.52V24.6522C24.4705 25.0672 24.5522 25.478 24.711 25.8614C24.8698 26.2447 25.1025 26.5931 25.3959 26.8865C25.6893 27.1799 26.0376 27.4126 26.421 27.5714C26.8043 27.7302 27.2152 27.8119 27.6302 27.8119C28.4682 27.8119 29.2718 27.479 29.8644 26.8865C30.457 26.2939 30.7898 25.4902 30.7898 24.6522V19.451L31.4583 19.8471L32.2266 23.7025C32.2812 23.9764 32.4399 24.2186 32.6693 24.3779C32.8988 24.5373 33.1811 24.6014 33.4569 24.5569C33.7327 24.5124 33.9805 24.3627 34.1481 24.1392C34.3158 23.9158 34.3902 23.636 34.3559 23.3587L34.3559 23.3588Z" fill="#E0D809"/>
<path d="M18.4567 19.8678C18.4714 19.8898 18.4877 19.9104 18.5017 19.9329C18.7538 20.3367 18.8755 20.8084 18.8501 21.2838C18.8248 21.7592 18.6536 22.2153 18.36 22.59C18.4158 22.5885 18.4716 22.5835 18.5268 22.575L23.3767 21.824C23.4261 21.8159 23.4749 21.805 23.5231 21.7914V17.5228L22.2645 18.9467L18.4567 19.8678Z" fill="#E0D809"/>
<path d="M24.8292 11.5689C24.927 12.0722 25.1968 12.5259 25.5925 12.8521C25.9881 13.1782 26.4849 13.3566 26.9977 13.3566C27.5105 13.3566 28.0073 13.1782 28.4029 12.8521C28.7986 12.5259 29.0684 12.0722 29.1662 11.5689L29.5032 9.82923C29.548 9.50009 29.5218 9.16518 29.4265 8.847C29.3311 8.52882 29.1687 8.23474 28.9502 7.98454C28.7317 7.73434 28.4622 7.5338 28.1598 7.39642C27.8573 7.25904 27.529 7.18799 27.1968 7.18805H26.7986C26.4664 7.18799 26.1381 7.25904 25.8357 7.39642C25.5332 7.5338 25.2637 7.73433 25.0452 7.98454C24.8267 8.23474 24.6643 8.52882 24.569 8.847C24.4736 9.16518 24.4474 9.50009 24.4922 9.82923L24.8292 11.5689Z" fill="#E0D809"/>
</svg>
