<svg width="35" height="35" viewBox="0 0 35 35" fill="none" xmlns="http://www.w3.org/2000/svg">
<path d="M4.14636 8.56605C4.24349 9.06691 4.51187 9.51836 4.90547 9.84296C5.29907 10.1676 5.79335 10.3451 6.30354 10.3451C6.81372 10.3451 7.30801 10.1676 7.70161 9.84296C8.09521 9.51836 8.36359 9.06691 8.46072 8.56605L8.79754 6.83296C8.84191 6.50534 8.81568 6.172 8.7206 5.85535C8.62551 5.5387 8.46378 5.24606 8.24626 4.99707C8.02874 4.74808 7.76047 4.54851 7.45946 4.41176C7.15844 4.27502 6.83165 4.20425 6.50103 4.20422H6.10604C5.77542 4.20425 5.44864 4.27502 5.14762 4.41177C4.84661 4.54851 4.57834 4.74808 4.36082 4.99707C4.1433 5.24606 3.98157 5.5387 3.88649 5.85535C3.7914 6.17201 3.76517 6.50534 3.80954 6.83296L4.14636 8.56605Z" fill="#ECECEC"/>
<path d="M11.2771 22.71C11.2937 22.7242 11.3069 22.742 11.3157 22.7619C11.3246 22.7819 11.3289 22.8036 11.3283 22.8254C11.3277 22.8473 11.3222 22.8687 11.3122 22.8881C11.3022 22.9076 11.2881 22.9245 11.2707 22.9378C11.0637 23.094 10.8088 23.1732 10.5497 23.1618C10.3569 23.1545 10.1698 23.0948 10.0085 22.9891C9.95322 24.9535 9.90026 25.6605 9.84268 27.6388C9.82655 28.3342 9.79662 29.4051 9.77129 30.3079C9.75606 30.8654 9.52498 31.3953 9.12673 31.7858C8.72849 32.1763 8.19419 32.397 7.63645 32.4013L6.30304 32.4105L4.96963 32.4013C4.412 32.3966 3.87793 32.1758 3.47977 31.7854C3.08161 31.3949 2.8504 30.8653 2.8348 30.3079C2.80946 29.4051 2.78182 28.3342 2.76341 27.6388C2.70812 25.6605 2.65285 24.9535 2.59758 22.9891C2.4364 23.0951 2.2492 23.1549 2.0564 23.1618C1.77189 23.1744 1.49334 23.0776 1.27793 22.8914C1.06252 22.7051 0.926575 22.4434 0.898007 22.16C0.893429 22.1373 0.891118 22.1141 0.891105 22.0909V22.0748C0.87958 21.704 0.858862 21.3356 0.838127 20.9648C0.815103 20.5963 0.789775 20.2278 0.759833 19.8571C0.734505 19.4863 0.697648 19.1178 0.66771 18.7493L0.561788 17.6416C0.559482 17.6094 0.559482 17.5771 0.561788 17.5449L0.580201 17.3791L0.686142 16.3658C0.716081 16.0273 0.750619 15.6887 0.778252 15.3525C0.808191 15.014 0.831231 14.6732 0.856559 14.3323C0.877291 13.9938 0.89801 13.653 0.907233 13.3098C0.915349 13.0439 0.985858 12.7837 1.11307 12.55C1.24028 12.3164 1.42063 12.116 1.63957 11.9649C1.6644 11.9468 1.69057 11.9306 1.71786 11.9165C1.94908 11.7743 2.21343 11.6949 2.48475 11.6862C2.86703 11.6332 3.25163 11.5849 3.63853 11.5388C3.87113 11.5066 4.10371 11.479 4.33401 11.4513C4.44059 11.4319 4.55057 11.4461 4.64875 11.4919C4.74693 11.5377 4.82847 11.6128 4.88211 11.7069C5.16998 12.1537 5.46938 12.5982 5.76645 13.0427C5.93687 13.2983 6.10959 13.5516 6.29844 13.8349C6.29844 13.8303 6.30305 13.8303 6.30305 13.828C6.30534 13.8303 6.30764 13.8303 6.30995 13.8349C6.49879 13.5516 6.66921 13.2983 6.84193 13.0427C7.13902 12.5982 7.43609 12.1537 7.72627 11.7069C7.77941 11.6129 7.86052 11.5378 7.95834 11.492C8.05615 11.4461 8.16581 11.4319 8.27207 11.4513C8.50467 11.479 8.73727 11.5066 8.96986 11.5388C9.35446 11.5849 9.74135 11.6333 10.1236 11.6862C10.2774 11.6911 10.4296 11.719 10.575 11.7691L9.04585 15.3548L8.97907 15.5114C8.74797 16.0581 8.73315 16.6722 8.93762 17.2294L10.5888 21.7455C10.7289 22.1222 10.9664 22.4551 11.2771 22.71Z" fill="#ECECEC"/>
<path d="M15.2177 7.19999C15.3207 7.72974 15.6047 8.20719 16.0211 8.55048C16.4375 8.89376 16.9603 9.0815 17.5 9.0815C18.0396 9.0815 18.5625 8.89376 18.9789 8.55048C19.3953 8.20719 19.6793 7.72974 19.7822 7.19999L20.1368 5.36914C20.184 5.02275 20.1565 4.67028 20.0561 4.33541C19.9557 4.00055 19.7848 3.69106 19.5548 3.42774C19.3249 3.16442 19.0412 2.95337 18.723 2.80878C18.4047 2.66419 18.0591 2.58942 17.7095 2.58948H17.2904C16.9408 2.58942 16.5953 2.66419 16.277 2.80878C15.9587 2.95337 15.675 3.16442 15.4451 3.42774C15.2152 3.69106 15.0442 4.00055 14.9439 4.33541C14.8435 4.67028 14.8159 5.02275 14.8631 5.36914L15.2177 7.19999Z" fill="#3E42FF"/>
<path d="M24.9593 15.9605L24.8948 15.8108L23.0847 11.5619C23.0569 11.4979 23.0254 11.4356 22.9902 11.3753C22.7862 11.0214 22.4605 10.7537 22.0737 10.6223C22.0724 10.6224 22.0712 10.6223 22.07 10.6219C22.0688 10.6215 22.0677 10.6208 22.0668 10.62C21.9265 10.5667 21.7804 10.5303 21.6315 10.5117C21.1962 10.4518 20.7564 10.3966 20.3188 10.3436C20.0724 10.3114 19.826 10.2814 19.5819 10.2515C19.4695 10.2312 19.3536 10.2462 19.2501 10.2944C19.1466 10.3427 19.0605 10.4218 19.0038 10.5209C18.6975 10.9953 18.382 11.4628 18.0688 11.935C17.8869 12.2044 17.705 12.4738 17.5069 12.7732C17.5072 12.7722 17.5073 12.771 17.5071 12.7699C17.5069 12.7688 17.5064 12.7678 17.5058 12.7669C17.5051 12.766 17.5042 12.7653 17.5032 12.7648C17.5022 12.7643 17.5011 12.764 17.5 12.764C17.4989 12.764 17.4978 12.7643 17.4968 12.7648C17.4958 12.7653 17.4949 12.766 17.4942 12.7669C17.4936 12.7678 17.4931 12.7688 17.4929 12.7699C17.4927 12.771 17.4928 12.7722 17.4931 12.7732C17.295 12.4738 17.1131 12.2044 16.9312 11.935C16.618 11.4628 16.3025 10.9953 15.9962 10.5209C15.9395 10.4218 15.8535 10.3427 15.7499 10.2944C15.6464 10.2462 15.5305 10.2312 15.4181 10.2515C15.174 10.2814 14.9276 10.3114 14.6812 10.3436C14.2436 10.3966 13.8038 10.4518 13.3685 10.5117C13.2196 10.5303 13.0735 10.5667 12.9333 10.62C12.9323 10.6208 12.9313 10.6215 12.9301 10.6219C12.9289 10.6223 12.9276 10.6224 12.9263 10.6223C12.5395 10.7537 12.2138 11.0214 12.0098 11.3753C11.9747 11.4356 11.9431 11.4979 11.9154 11.5619L10.1052 15.8108L10.0408 15.9605C9.92363 16.2374 9.91541 16.5483 10.0177 16.831L10.2043 17.3377L11.6689 21.3448C11.7694 21.616 11.9684 21.8393 12.2262 21.9703C12.484 22.1013 12.7816 22.1304 13.0599 22.0518C13.2045 22.0108 13.3397 21.9417 13.4576 21.8484C13.5754 21.7551 13.6738 21.6394 13.7469 21.5081C13.8201 21.3768 13.8666 21.2323 13.8839 21.083C13.9011 20.9336 13.8888 20.7824 13.8475 20.6378L13.4975 19.4057L12.7053 16.6238L13.3846 15.5414C13.3892 15.6197 13.3938 15.6934 13.3938 15.7694C13.4007 16.0181 13.41 16.2645 13.4169 16.5132C13.4238 16.7435 13.4284 16.9738 13.4353 17.2064L14.3703 20.4881C14.4515 20.7752 14.4556 21.0786 14.382 21.3677C14.3084 21.6569 14.1598 21.9214 13.9511 22.1347C13.8415 22.2451 13.7176 22.3404 13.5827 22.418C13.6402 24.5206 13.6978 25.2621 13.7577 27.3647C13.7761 28.1017 13.8061 29.2347 13.8337 30.1882C13.85 30.7775 14.0944 31.3376 14.5153 31.7504C14.9363 32.1632 15.501 32.3965 16.0906 32.4013L17.5 32.4105L18.9094 32.4013C19.499 32.3965 20.0637 32.1632 20.4847 31.7504C20.9056 31.3376 21.15 30.7775 21.1663 30.1881C21.1939 29.2347 21.2239 28.1017 21.2423 27.3647C21.3022 25.2621 21.3597 24.5206 21.4173 22.418C21.2824 22.3404 21.1585 22.2451 21.0489 22.1347C20.8402 21.9214 20.6916 21.6568 20.618 21.3677C20.5444 21.0786 20.5485 20.7752 20.6297 20.4881L21.5647 17.2064C21.5716 16.9738 21.5762 16.7435 21.5831 16.5132C21.59 16.2645 21.5992 16.0181 21.6062 15.7694C21.6062 15.6934 21.6108 15.6197 21.6154 15.5414L22.2947 16.6238L21.5025 19.4057L21.1525 20.6378C21.0718 20.923 21.1047 21.2284 21.2443 21.4899C21.384 21.7513 21.6195 21.9485 21.9014 22.04C22.1834 22.1315 22.4898 22.1102 22.7564 21.9806C23.023 21.8509 23.2289 21.6231 23.3311 21.3448L24.7957 17.3377L24.9823 16.831C25.0846 16.5483 25.0764 16.2374 24.9593 15.9605Z" fill="#3E42FF"/>
<path d="M30.8537 8.56605C30.7565 9.06691 30.4882 9.51836 30.0946 9.84296C29.701 10.1676 29.2067 10.3451 28.6965 10.3451C28.1863 10.3451 27.692 10.1676 27.2984 9.84296C26.9048 9.51836 26.6364 9.06691 26.5393 8.56605L26.2025 6.83296C26.1581 6.50534 26.1843 6.172 26.2794 5.85535C26.3745 5.5387 26.5362 5.24606 26.7538 4.99707C26.9713 4.74808 27.2396 4.54851 27.5406 4.41176C27.8416 4.27502 28.1684 4.20425 28.499 4.20422H28.894C29.2246 4.20425 29.5514 4.27502 29.8524 4.41176C30.1534 4.54851 30.4217 4.74808 30.6392 4.99707C30.8567 5.24606 31.0185 5.5387 31.1136 5.85535C31.2086 6.172 31.2349 6.50534 31.1905 6.83296L30.8537 8.56605Z" fill="#ECECEC"/>
<path d="M23.7229 22.7101C23.7063 22.7243 23.6931 22.742 23.6842 22.762C23.6754 22.7819 23.6711 22.8036 23.6717 22.8255C23.6723 22.8473 23.6778 22.8687 23.6878 22.8881C23.6977 22.9076 23.7119 22.9245 23.7293 22.9378C23.9363 23.094 24.1912 23.1732 24.4503 23.1618C24.643 23.1545 24.8301 23.0948 24.9915 22.9891C25.0467 24.9535 25.0997 25.6605 25.1573 27.6388C25.1734 28.3343 25.2033 29.4051 25.2287 30.3079C25.2439 30.8654 25.475 31.3953 25.8732 31.7858C26.2715 32.1763 26.8058 32.397 27.3635 32.4013L28.6969 32.4105L30.0303 32.4013C30.588 32.3966 31.122 32.1758 31.5202 31.7854C31.9183 31.3949 32.1496 30.8653 32.1652 30.3079C32.1905 29.4051 32.2181 28.3343 32.2365 27.6388C32.2918 25.6605 32.3471 24.9535 32.4024 22.9891C32.5636 23.0951 32.7508 23.1549 32.9436 23.1618C33.2281 23.1744 33.5066 23.0777 33.722 22.8914C33.9374 22.7051 34.0734 22.4434 34.1019 22.16C34.1065 22.1373 34.1088 22.1142 34.1088 22.0909V22.0748C34.1204 21.704 34.1411 21.3356 34.1618 20.9648C34.1849 20.5963 34.2102 20.2279 34.2401 19.8571C34.2654 19.4863 34.3023 19.1178 34.3322 18.7494L34.4382 17.6416C34.4405 17.6094 34.4405 17.5771 34.4382 17.5449L34.4198 17.3791L34.3138 16.3658C34.2839 16.0273 34.2493 15.6887 34.2217 15.3525C34.1918 15.014 34.1687 14.6731 34.1434 14.3323C34.1227 13.9938 34.1019 13.6529 34.0927 13.3098C34.0846 13.0439 34.0141 12.7836 33.8869 12.55C33.7597 12.3164 33.5793 12.116 33.3604 11.9649C33.3356 11.9468 33.3094 11.9306 33.2821 11.9165C33.0509 11.7743 32.7865 11.6949 32.5152 11.6862C32.1329 11.6332 31.7483 11.5849 31.3614 11.5388C31.1288 11.5066 30.8962 11.479 30.666 11.4513C30.5594 11.4319 30.4494 11.4461 30.3512 11.4919C30.253 11.5377 30.1715 11.6128 30.1178 11.7069C29.83 12.1537 29.5306 12.5982 29.2335 13.0427C29.0631 13.2983 28.8904 13.5516 28.7015 13.8349C28.7015 13.8303 28.6969 13.8303 28.6969 13.828C28.6946 13.8303 28.6923 13.8303 28.69 13.8349C28.5012 13.5516 28.3308 13.2983 28.158 13.0427C27.8609 12.5982 27.5639 12.1537 27.2737 11.7069C27.2206 11.6129 27.1394 11.5378 27.0416 11.492C26.9438 11.4461 26.8342 11.4319 26.7279 11.4513C26.4953 11.479 26.2627 11.5066 26.0301 11.5388C25.6455 11.5849 25.2586 11.6333 24.8763 11.6862C24.7226 11.6911 24.5704 11.719 24.4249 11.7691L25.9541 15.3548L26.0209 15.5114C26.252 16.0581 26.2668 16.6722 26.0623 17.2294L24.4111 21.7455C24.271 22.1222 24.0336 22.4551 23.7229 22.7101Z" fill="#ECECEC"/>
</svg>
