<svg width="30" height="30" viewBox="0 0 30 30" fill="none" xmlns="http://www.w3.org/2000/svg">
<path d="M20 11.25C23.4518 11.25 26.25 9.57107 26.25 7.5C26.25 5.42893 23.4518 3.75 20 3.75C16.5482 3.75 13.75 5.42893 13.75 7.5C13.75 9.57107 16.5482 11.25 20 11.25Z" stroke="#272978" stroke-width="2" stroke-linecap="round" stroke-linejoin="round"/>
<path d="M13.75 7.5V12.5C13.75 14.5712 16.5487 16.25 20 16.25C23.4512 16.25 26.25 14.5712 26.25 12.5V7.5" stroke="#272978" stroke-width="2" stroke-linecap="round" stroke-linejoin="round"/>
<path d="M13.75 12.5V17.5C13.75 19.5712 16.5487 21.25 20 21.25C23.4512 21.25 26.25 19.5712 26.25 17.5V12.5" stroke="#272978" stroke-width="2" stroke-linecap="round" stroke-linejoin="round"/>
<path d="M13.75 17.5V22.5C13.75 24.5713 16.5487 26.25 20 26.25C23.4512 26.25 26.25 24.5713 26.25 22.5V17.5" stroke="#272978" stroke-width="2" stroke-linecap="round" stroke-linejoin="round"/>
<path d="M8.75 11.25H5.625C5.12772 11.25 4.65081 11.4475 4.29917 11.7992C3.94754 12.1508 3.75 12.6277 3.75 13.125C3.75 13.6223 3.94754 14.0992 4.29917 14.4508C4.65081 14.8025 5.12772 15 5.625 15H6.875C7.37228 15 7.84919 15.1975 8.20083 15.5492C8.55246 15.9008 8.75 16.3777 8.75 16.875C8.75 17.3723 8.55246 17.8492 8.20083 18.2008C7.84919 18.5525 7.37228 18.75 6.875 18.75H3.75" stroke="#272978" stroke-width="2" stroke-linecap="round" stroke-linejoin="round"/>
<path d="M6.25 10V11.25M6.25 18.75V20V18.75Z" stroke="#272978" stroke-width="2" stroke-linecap="round" stroke-linejoin="round"/>
</svg>
