<svg width="30" height="30" viewBox="0 0 30 30" fill="none" xmlns="http://www.w3.org/2000/svg">
<path d="M16 3V8.0001H21.0001L16 3Z" fill="#272978"/>
<path d="M14.4999 9.5001V3H3V27H13.5V18.9999H5.0001V17.4999H14.0127C14.4687 16.8963 15.1866 16.5 15.9999 16.5H16.5V15.9999C16.5 14.6211 17.6211 13.5 18.9999 13.5H21V9.5001H14.4999ZM11.4999 24.9999H5.0001V23.4999H11.5002V24.9999H11.4999ZM11.4999 20.4999V21.9999H5.0001V20.4999H11.4999ZM8.0001 5.0001C8.8284 5.0001 9.5001 5.6721 9.5001 6.5001C9.5001 7.3284 8.8284 8.0001 8.0001 8.0001C7.1721 8.0001 6.5001 7.3284 6.5001 6.5001C6.5001 5.6718 7.1718 5.0001 8.0001 5.0001ZM5.0001 9.9999C5.0001 9.4512 5.4492 9 6 9H6.3477C6.8223 9.3144 7.3887 9.5001 8.0001 9.5001C8.6115 9.5001 9.1779 9.3147 9.6525 9H10.0002C10.5489 9 11.0001 9.4512 11.0001 9.9999V12H5.0001V9.9999ZM12.9999 15.9999H5.0001V14.4999H13.0002V15.9999H12.9999Z" fill="#272978"/>
<path d="M21.75 22.9551V24.5001H20.25V22.9551C18.3789 22.8654 16.5594 22.4337 15 21.6642V26.0001C15 26.5497 15.4503 27 15.9999 27H26.0001C26.5497 27 27 26.5497 27 26.0001V21.6642C25.4394 22.4334 23.6211 22.8654 21.75 22.9551Z" fill="#272978"/>
<path d="M27 19.9959V18.9999C27 18.4503 26.5497 18 26.0001 18H24V15.9999C24 15.4503 23.5497 15 23.0001 15H18.9999C18.4503 15 18 15.4503 18 15.9999V18H15.9999C15.4503 18 15 18.4503 15 18.9999V19.9959C18.3135 21.996 23.6856 21.996 27 19.9959ZM19.5 16.5H22.5V18H19.5V16.5Z" fill="#272978"/>
</svg>
